<?xml version="1.0" standalone="no"?>
<!DOCTYPE svg PUBLIC "-//W3C//DTD SVG 1.0//EN" "http://www.w3.org/TR/2001/REC-SVG-20010904/DTD/svg10.dtd">
<svg xmlns="http://www.w3.org/2000/svg" xmlns:xlink="http://www.w3.org/1999/xlink" id="body_1" width="64" height="64">

<g transform="matrix(0.125 0 0 0.125 0 0)">
    <path transform="matrix(8.533335 0 0 8.533335 0 0)"  d="M30 12C 31.61785 12 33.07639 11.02543 33.69552 9.530734C 34.31464 8.036036 33.97242 6.315565 32.82843 5.171573C 31.68443 4.027581 29.96396 3.685358 28.46927 4.304482C 26.97457 4.923606 26 6.382151 26 8C 26 10.20914 27.79086 12 30 12zM30 6C 30.80892 6 31.5382 6.487285 31.84776 7.234633C 32.15732 7.981982 31.98621 8.842217 31.41421 9.414213C 30.84222 9.98621 29.98198 10.15732 29.23463 9.847759C 28.48728 9.538197 28 8.808925 28 8C 28 6.895431 28.89543 6 30 6z" stroke="none" fill="#66CC33" fill-rule="nonzero" />
    <path transform="matrix(8.533335 0 0 8.533335 0 0)"  d="M30 44C 38.89817 44 46.92017 38.63987 50.32535 30.41903C 53.73053 22.1982 51.8483 12.73561 45.55635 6.443651C 39.26439 0.1516953 29.8018 -1.73053 21.58097 1.67465C 13.36013 5.079832 8 13.10183 8 22C 8.013777 34.14455 17.85545 43.98622 30 44zM30 2C 38.08924 2 45.38197 6.872845 48.47759 14.34633C 51.57321 21.81982 49.86209 30.42218 44.14214 36.14214C 38.42218 41.86209 29.81982 43.57321 22.34633 40.47759C 14.87284 37.38197 10 30.08924 10 22C 10.01267 10.95956 18.95956 2.012674 30 2z" stroke="none" fill="#66CC33" fill-rule="nonzero" />
    <path transform="matrix(8.533335 0 0 8.533335 0 0)"  d="M19 20L25 20L25 23.238C 24.99941 23.65961 24.94633 24.0795 24.842 24.488L24.842 24.488L22.094 35.13C 21.82624 36.2148 22.16021 37.35991 22.96915 38.13069C 23.7781 38.90147 24.93799 39.17976 26.0086 38.85993C 27.07921 38.54011 27.8964 37.6712 28.15 36.583L28.15 36.583L30 28.49L31.85 36.59C 32.08628 37.69843 32.90611 38.59098 33.99052 38.92037C 35.07494 39.24976 36.25268 38.96399 37.06554 38.17424C 37.8784 37.38448 38.198 36.21546 37.9 35.122L37.9 35.122L35.159 24.489C 35.05392 24.08029 35.0005 23.66001 35 23.238L35 23.238L35 20L40.893 20C 42.38565 20.01876 43.67744 18.96578 43.96 17.5C 44.10724 16.62895 43.86308 15.73728 43.29262 15.06276C 42.72216 14.38823 41.88341 13.99942 41 14L41 14L19.107 14C 17.61436 13.98124 16.32256 15.03422 16.04 16.5C 15.89277 17.37105 16.13693 18.26271 16.70739 18.93724C 17.27784 19.61176 18.11659 20.00058 19 20zM19.107 16L41 16C 41.29591 15.99987 41.57668 16.1308 41.76678 16.35757C 41.95688 16.58434 42.03679 16.88366 41.985 17.175C 41.8629 17.6743 41.40666 18.01898 40.893 18L40.893 18L35 18C 33.89543 18 33 18.89543 33 20L33 20L33 23.238C 32.99978 23.82843 33.07472 24.41649 33.223 24.988L33.223 24.988L35.967 35.614C 36.07838 36.05431 35.91156 36.51818 35.54525 36.7867C 35.17895 37.05522 34.68639 37.07472 34.3 36.836C 34.04522 36.68021 33.86473 36.42753 33.8 36.136L33.8 36.136L31.532 26.212C 31.36961 25.49711 30.7341 24.98976 30.001 24.98976C 29.2679 24.98976 28.63239 25.49711 28.47 26.212L28.47 26.212L26.2 36.136C 26.1327 36.42738 25.95118 36.67951 25.69621 36.83577C 25.44123 36.99202 25.13418 37.03931 24.844 36.967C 24.24969 36.81783 23.88649 36.21771 24.03 35.622L24.03 35.622L26.777 24.987C 26.92487 24.41575 26.9998 23.82808 27 23.238L27 23.238L27 20C 27 18.89543 26.10457 18 25 18L25 18L19 18C 18.70409 18.00013 18.42332 17.8692 18.23322 17.64243C 18.04312 17.41566 17.96321 17.11634 18.015 16.825C 18.1371 16.3257 18.59334 15.98101 19.107 16z" stroke="none" fill="#66CC33" fill-rule="nonzero" />
    <path transform="matrix(8.533335 0 0 8.533335 0 0)"  d="M59 48L45.858 48C 45.40898 46.23579 43.82045 45.00093 42 45.00093C 40.17955 45.00093 38.59102 46.23579 38.142 48L38.142 48L1 48C 0.4477152 48 0 48.44772 0 49C 0 49.55228 0.4477152 50 1 50L1 50L38.142 50C 38.59102 51.76421 40.17955 52.99907 42 52.99907C 43.82045 52.99907 45.40898 51.76421 45.858 50L45.858 50L59 50C 59.55228 50 60 49.55228 60 49C 60 48.44772 59.55228 48 59 48zM42 51C 41.19107 51 40.4618 50.51271 40.15224 49.76537C 39.84268 49.01802 40.01379 48.15778 40.58578 47.58578C 41.15778 47.01379 42.01802 46.84268 42.76537 47.15224C 43.51271 47.4618 44 48.19107 44 49C 44 50.10457 43.10457 51 42 51z" stroke="none" fill="#66CC33" fill-rule="nonzero" />
    <path transform="matrix(8.533335 0 0 8.533335 0 0)"  d="M59 55L23.858 55C 23.40898 53.23579 21.82045 52.00093 20 52.00093C 18.17955 52.00093 16.59102 53.23579 16.142 55L16.142 55L1 55C 0.4477152 55 0 55.44772 0 56C 0 56.55228 0.4477152 57 1 57L1 57L16.142 57C 16.59102 58.76421 18.17955 59.99907 20 59.99907C 21.82045 59.99907 23.40898 58.76421 23.858 57L23.858 57L59 57C 59.55228 57 60 56.55228 60 56C 60 55.44772 59.55228 55 59 55zM20 58C 19.19108 58 18.4618 57.51271 18.15224 56.76537C 17.84268 56.01802 18.01379 55.15778 18.58579 54.58578C 19.15778 54.01379 20.01802 53.84268 20.76537 54.15224C 21.51272 54.4618 22 55.19107 22 56C 22 57.10457 21.10457 58 20 58z" stroke="none" fill="#66CC33" fill-rule="nonzero" />
</g>
</svg>