<?xml version="1.0" standalone="no"?>
<!DOCTYPE svg PUBLIC "-//W3C//DTD SVG 1.0//EN" "http://www.w3.org/TR/2001/REC-SVG-20010904/DTD/svg10.dtd">
<svg xmlns="http://www.w3.org/2000/svg" xmlns:xlink="http://www.w3.org/1999/xlink" id="body_1" width="64" height="64">

<g transform="matrix(0.125 0 0 0.125 0 0)">
    <path transform="matrix(1 0 0 1 0 0)"  d="M483.603 0L30.291 0C 15.016 0 2.589 12.427 2.589 27.702L2.589 27.702L2.589 257.423L17.699 257.423L17.699 27.702C 17.699 20.758 23.347 15.11 30.291 15.11L30.291 15.11L483.602 15.11C 490.546 15.11 496.194 20.758 496.194 27.702L496.194 27.702L496.194 296.163L253.374 296.163L253.374 311.273L496.195 311.273L496.195 366.174C 496.195 373.118 490.547 378.766 483.603 378.766L483.603 378.766L314.87 378.766L199.024 378.766L192.034 378.766L192.034 393.876L199.024 393.876L199.024 430.589C 199.024 444.846 189.304 456.965 175.385 460.057C 162.613 462.895 153.693 474.015 153.693 487.1L153.693 487.1L153.693 508.715L360.201 508.715L360.201 487.1C 360.201 474.016 351.281 462.896 338.509 460.057C 324.591 456.964 314.87 444.846 314.87 430.589L314.87 430.589L314.87 393.876L483.603 393.876C 498.879 393.876 511.305 381.449 511.305 366.174L511.305 366.174L511.305 296.163L511.305 27.702C 511.305 12.427 498.878 0 483.603 0zM335.231 474.809C 341.036 476.098 345.091 481.153 345.091 487.101L345.091 487.101L345.091 493.606L168.803 493.606L168.803 487.101C 168.803 481.154 172.858 476.099 178.663 474.809C 199.548 470.168 214.134 451.984 214.134 430.59L214.134 430.59L214.134 393.877L299.759 393.877L299.759 430.59C 299.76 451.985 314.345 470.167 335.231 474.809z" stroke="none" fill="#66CC33" fill-rule="nonzero" />
    <path transform="matrix(1 0 0 1 0 0)"  d="M241.16 143.368C 227.481 136.032 210.389 141.193 203.057 154.867L203.057 154.867L181.377 195.296L152.333 179.721L148.397 187.063L147.961 187.876L118.909 172.296L110.163 188.603L81.12 173.028L31.799 265.002L26.266 321.623L0.695 363.007L13.549 370.95L40.962 326.584L46.543 269.481L87.296 193.488L103.024 201.922L89.104 227.879L102.42 235.019L116.339 209.062L125.085 192.755L140.82 201.193L118.155 243.459L131.471 250.599L154.136 208.334L154.137 208.335L158.509 200.18L174.237 208.614L147.2 259.032L160.516 266.172L187.552 215.754L187.553 215.754L216.374 162.007C 219.769 155.675 227.688 153.287 234.021 156.683C 240.354 160.079 242.743 167.994 239.347 174.326L239.347 174.326L180.79 283.519L212.284 300.408L188.459 344.839L134.603 375.672L60.019 504.425L73.094 512L145.641 386.766L199.728 355.801L232.742 294.232L201.248 277.343L252.661 181.468C 259.994 167.793 254.835 150.702 241.16 143.368z" stroke="none" fill="#66CC33" fill-rule="nonzero" />
    <path transform="matrix(1 0 0 1 0 0)"  d="M300.306 131.652C 288.191 94.41399 248.036 73.96999 210.8 86.08699C 173.562 98.19999 153.121 138.353 165.235 175.593L165.235 175.593L179.604 170.918C 170.068 141.602 186.16 109.994 215.475 100.456C 244.791 90.92099 276.4 107.012 285.937 136.327C 295.473 165.643 279.381 197.251 250.066 206.789L250.066 206.789L254.741 221.158C 291.979 209.044 312.42 168.892 300.306 131.652z" stroke="none" fill="#66CC33" fill-rule="nonzero" />
    <path transform="matrix(1 0 0 1 0 0)"  d="M323.917 155.488C 323.823 160.145 323.374 164.813 322.582 169.362L322.582 169.362L337.468 171.955C 338.392 166.651 338.916 161.213 339.023 155.791L339.023 155.791L323.917 155.488z" stroke="none" fill="#66CC33" fill-rule="nonzero" />
    <path transform="matrix(1 0 0 1 0 0)"  d="M305.193 209.005C 302.373 212.686 299.246 216.183 295.897 219.397L295.897 219.397L306.36 230.299C 310.261 226.554 313.904 222.481 317.188 218.192L317.188 218.192L305.193 209.005z" stroke="none" fill="#66CC33" fill-rule="nonzero" />
    <path transform="matrix(1 0 0 1 0 0)"  d="M266.853 52.931L262.009 67.245C 266.398 68.731 270.712 70.57 274.829 72.715L274.829 72.715L281.81 59.314C 277.007 56.811 271.975 54.664 266.853 52.931z" stroke="none" fill="#66CC33" fill-rule="nonzero" />
    <path transform="matrix(1 0 0 1 0 0)"  d="M318.845 183.742C 317.314 188.119 315.429 192.411 313.243 196.503L313.243 196.503L326.57 203.623C 329.122 198.848 331.321 193.839 333.107 188.732L333.107 188.732L318.845 183.742z" stroke="none" fill="#66CC33" fill-rule="nonzero" />
    <path transform="matrix(1 0 0 1 0 0)"  d="M216.582 48.573C 211.231 49.391 205.905 50.63 200.752 52.256L200.752 52.256L205.299 66.666C 209.715 65.272 214.279 64.21 218.864 63.51L218.864 63.51L216.582 48.573z" stroke="none" fill="#66CC33" fill-rule="nonzero" />
    <path transform="matrix(1 0 0 1 0 0)"  d="M233.856 47.351L233.705 62.461C 238.364 62.507 243.038 62.908 247.595 63.654L247.595 63.654L250.033 48.742C 244.721 47.873 239.279 47.406 233.856 47.351z" stroke="none" fill="#66CC33" fill-rule="nonzero" />
    <path transform="matrix(1 0 0 1 0 0)"  d="M184.706 58.812C 179.895 61.257 175.227 64.096 170.832 67.253L170.832 67.253L179.646 79.527C 183.418 76.818 187.423 74.382 191.549 72.286L191.549 72.286L184.706 58.812z" stroke="none" fill="#66CC33" fill-rule="nonzero" />
    <path transform="matrix(1 0 0 1 0 0)"  d="M334.459 122.642L320.003 127.041C 321.351 131.471 322.366 136.046 323.019 140.636L323.019 140.636L337.978 138.509C 337.217 133.153 336.033 127.814 334.459 122.642z" stroke="none" fill="#66CC33" fill-rule="nonzero" />
    <path transform="matrix(1 0 0 1 0 0)"  d="M258.46 241.12C 254.015 242.423 249.429 243.391 244.83 243.997L244.83 243.997L246.807 258.978C 252.172 258.27 257.522 257.141 262.707 255.62L262.707 255.62L258.46 241.12z" stroke="none" fill="#66CC33" fill-rule="nonzero" />
    <path transform="matrix(1 0 0 1 0 0)"  d="M157.631 78.465C 153.807 82.286 150.247 86.433 147.049 90.78899L147.049 90.78899L159.23 99.731C 161.975 95.991 165.031 92.43199 168.313 89.15199L168.313 89.15199L157.631 78.465z" stroke="none" fill="#66CC33" fill-rule="nonzero" />
    <path transform="matrix(1 0 0 1 0 0)"  d="M127.721 137.432C 126.907 142.755 126.494 148.202 126.494 153.622L126.494 153.622L141.604 153.622C 141.604 148.964 141.959 144.286 142.658 139.716L142.658 139.716L127.721 137.432z" stroke="none" fill="#66CC33" fill-rule="nonzero" />
    <path transform="matrix(1 0 0 1 0 0)"  d="M137.964 105.55C 135.512 110.376 133.417 115.431 131.736 120.571L131.736 120.571L146.099 125.267C 147.539 120.861 149.335 116.529 151.436 112.393L151.436 112.393L137.964 105.55z" stroke="none" fill="#66CC33" fill-rule="nonzero" />
    <path transform="matrix(1 0 0 1 0 0)"  d="M319.769 92.569L307.408 101.258C 310.077 105.055 312.472 109.084 314.526 113.233L314.526 113.233L328.068 106.528C 325.672 101.691 322.88 96.995 319.769 92.569z" stroke="none" fill="#66CC33" fill-rule="nonzero" />
    <path transform="matrix(1 0 0 1 0 0)"  d="M284.37 228.79C 280.544 231.421 276.492 233.774 272.324 235.785L272.324 235.785L278.888 249.394C 283.749 247.05 288.475 244.306 292.933 241.239L292.933 241.239L284.37 228.79z" stroke="none" fill="#66CC33" fill-rule="nonzero" />
    <path transform="matrix(1 0 0 1 0 0)"  d="M296.475 68.548L287.411 80.638C 291.122 83.42 294.651 86.512 297.897 89.827L297.897 89.827L308.693 79.25401C 304.909 75.392 300.798 71.79 296.475 68.548z" stroke="none" fill="#66CC33" fill-rule="nonzero" />
</g>
</svg>