<?xml version="1.0" standalone="no"?>
<!DOCTYPE svg PUBLIC "-//W3C//DTD SVG 1.0//EN" "http://www.w3.org/TR/2001/REC-SVG-20010904/DTD/svg10.dtd">
<svg xmlns="http://www.w3.org/2000/svg" xmlns:xlink="http://www.w3.org/1999/xlink" id="body_1" width="64" height="48">

<g transform="matrix(0.0625 0 0 0.0625 0 0)">
    <path transform="matrix(1.5 0 0 1.5 128 0)"  d="M350.4 123.5C 340.6 116.5 330 110.6 318.9 105.9L318.9 105.9L306.3 135.9C 315.2 139.6 323.6 144.4 331.5 150L331.5 150L350.4 123.5z" stroke="none" fill="#66CC33" fill-rule="nonzero" />
    <path transform="matrix(1.5 0 0 1.5 128 0)"  d="M398.2 176.9C 392.3 166.4 385.3 156.6 377.3 147.6L377.3 147.6L353 169.3C 359.4 176.5 365.1 184.4 369.8 192.8L369.8 192.8L398.2 176.9z" stroke="none" fill="#66CC33" fill-rule="nonzero" />
    <path transform="matrix(1.5 0 0 1.5 128 0)"  d="M379.9 219.3C 400.1 288.2 360.6 360.4 291.7 380.5C 222.8 400.6 150.6 361.2 130.5 292.3C 110.3 223.4 149.8 151.2 218.7 131.1C 237.8 125.5 258 124.4 277.6 127.8L277.6 127.8L283.2 95.69999C 273.9 94.09999 264.4 93.29999 255 93.29999C 165.2 93.39999 92.60002 166.3 92.70001 256C 92.8 345.7 165.7 418.4 255.4 418.3C 345.2 418.2 417.8 345.3 417.7 255.6C 417.7 240.2 415.5 224.9 411.2 210.2L411.2 210.2L379.9 219.3z" stroke="none" fill="#66CC33" fill-rule="nonzero" />
    <path transform="matrix(1.5 0 0 1.5 128 0)"  d="M512 256L470.3 198.6L477.7 128L412.9 99.1L384 34.3L313.4 41.7L256 0L198.6 41.7L128 34.3L99.1 99.1L34.3 128L41.7 198.6L0 256L41.7 313.4L34.3 384L99.10001 412.9L128 477.7L198.6 470.3L256 512L313.4 470.3L384 477.7L412.9 412.9L477.7 384L470.3 313.4L512 256zM388.2 388.2L363.8 442.8L304.4 436.5L256 471.8L207.6 436.6L148.1 442.8L123.7 388.2L69 363.8L75.4 304.4L40.2 256L75.4 207.6L69.1 148.1L123.7 123.7L148.2 69L207.7 75.2L256 40.2L304.4 75.39999L363.9 69.2L388.3 123.8L442.9 148.2L436.5 207.6L471.7 256L436.5 304.4L442.7 363.9L388.2 388.2z" stroke="none" fill="#414042" fill-rule="nonzero" />
    <path transform="matrix(1.5 0 0 1.5 128 0)"  d="M185.2 244.5L162.2 267.5L222.5 327.8L331.6 218.7L308.6 195.7L222.5 281.8L185.2 244.5" stroke="none" fill="#66CC33" fill-rule="nonzero" />
</g>
</svg>