<?xml version="1.0" standalone="no"?>
<!DOCTYPE svg PUBLIC "-//W3C//DTD SVG 1.0//EN" "http://www.w3.org/TR/2001/REC-SVG-20010904/DTD/svg10.dtd">
<svg xmlns="http://www.w3.org/2000/svg" xmlns:xlink="http://www.w3.org/1999/xlink" id="body_1" width="64" height="64">

<g transform="matrix(0.125 0 0 0.125 0 0)">
    <path transform="matrix(1 0 0 1 0 0)"  d="M347 512L75 512C 62.594 512 52.5 501.907 52.5 489.5L52.5 489.5L52.5 184.234C 52.5 180.092 55.857 176.734 60 176.734C 64.14301 176.734 67.5 180.092 67.5 184.234L67.5 184.234L67.5 489.5C 67.5 493.636 70.864 497 75 497L75 497L347 497C 351.136 497 354.5 493.636 354.5 489.5L354.5 489.5L354.5 482L227 482C 214.594 482 204.5 471.907 204.5 459.5L204.5 459.5L204.5 442L120 442C 115.857 442 112.5 438.642 112.5 434.5C 112.5 430.358 115.857 427 120 427L120 427L204.5 427L204.5 402L120 402C 115.857 402 112.5 398.642 112.5 394.5C 112.5 390.358 115.857 387 120 387L120 387L204.5 387L204.5 362L120 362C 115.857 362 112.5 358.642 112.5 354.5C 112.5 350.358 115.857 347 120 347L120 347L204.5 347L204.5 322L120 322C 115.857 322 112.5 318.642 112.5 314.5C 112.5 310.358 115.857 307 120 307L120 307L204.5 307L204.5 282L120 282C 115.857 282 112.5 278.642 112.5 274.5C 112.5 270.358 115.857 267 120 267L120 267L204.5 267L204.5 249.5C 204.5 246.872 204.953 244.347 205.785 242L205.785 242L120 242C 115.857 242 112.5 238.642 112.5 234.5C 112.5 230.358 115.857 227 120 227L120 227L354.5 227L354.5 82.5C 354.5 78.364 351.136 75 347 75L347 75L75 75C 70.864 75 67.5 78.364 67.5 82.5L67.5 82.5L67.5 149.234C 67.5 153.376 64.143 156.734 60 156.734C 55.857 156.734 52.5 153.376 52.5 149.234L52.5 149.234L52.5 82.50001C 52.5 70.09301 62.594 60.00001 75 60.00001L75 60.00001L82.5 60.00001L82.5 52.50001C 82.5 40.09301 92.594 30.00001 105 30.00001L105 30.00001L112.5 30.00001L112.5 22.50001C 112.5 10.09301 122.594 7.629395E-06 135 7.629395E-06L135 7.629395E-06L407 7.629395E-06C 419.406 7.629395E-06 429.5 10.09301 429.5 22.50001L429.5 22.50001L429.5 204.5C 429.5 208.642 426.143 212 422 212C 417.857 212 414.5 208.642 414.5 204.5L414.5 204.5L414.5 22.5C 414.5 18.364 411.136 15 407 15L407 15L135 15C 130.864 15 127.5 18.364 127.5 22.5L127.5 22.5L127.5 30L377 30C 388.199 30 399.5 38.503 399.5 57.5L399.5 57.5L399.5 227L437 227C 449.406 227 459.5 237.093 459.5 249.5L459.5 249.5L459.5 459.5C 459.5 471.907 449.406 482 437 482L437 482L392 482C 387.857 482 384.5 478.642 384.5 474.5C 384.5 470.358 387.857 467 392 467L392 467L437 467C 441.136 467 444.5 463.636 444.5 459.5L444.5 459.5L444.5 249.5C 444.5 245.364 441.136 242 437 242L437 242L227 242C 222.864 242 219.5 245.364 219.5 249.5L219.5 249.5L219.5 459.5C 219.5 463.636 222.864 467 227 467L227 467L362 467C 366.143 467 369.5 470.358 369.5 474.5L369.5 474.5L369.5 489.5C 369.5 501.907 359.406 512 347 512zM369.5 227L384.5 227L384.5 57.5C 384.5 54.568 383.959 45 377 45L377 45L105 45C 100.864 45 97.5 48.364 97.5 52.5L97.5 52.5L97.5 60L347 60C 359.406 60 369.5 70.093 369.5 82.5zM332 437C 302.726 437 282.776 431.79 273.49 428.685C 268.113 426.887 264.5 421.866 264.5 416.19L264.5 416.19L264.5 352.811C 264.5 347.135 268.113 342.114 273.491 340.315C 276.721 339.235 281.243 337.899 287 336.618L287 336.618L287 302C 287 277.187 307.187 257 332 257C 356.813 257 377 277.187 377 302L377 302L377 336.618C 382.757 337.9 387.278 339.235 390.51 340.316C 395.887 342.114 399.5 347.135 399.5 352.811L399.5 352.811L399.5 416.19C 399.5 421.866 395.887 426.887 390.509 428.686C 381.224 431.79 361.274 437 332 437zM279.5 414.867C 287.165 417.301 305.415 422 332 422C 358.585 422 376.836 417.301 384.5 414.867L384.5 414.867L384.5 354.134C 376.835 351.699 358.585 347 332 347C 305.415 347 287.164 351.699 279.5 354.133zM332 332C 343.455 332 353.48 332.797 362 333.955L362 333.955L362 302C 362 285.458 348.542 272 332 272C 315.458 272 302 285.458 302 302L302 302L302 333.955C 310.52 332.797 320.545 332 332 332zM302 202L120 202C 115.857 202 112.5 198.642 112.5 194.5C 112.5 190.358 115.857 187 120 187L120 187L302 187C 306.143 187 309.5 190.358 309.5 194.5C 309.5 198.642 306.143 202 302 202zM302 162L120 162C 115.857 162 112.5 158.642 112.5 154.5C 112.5 150.358 115.857 147 120 147L120 147L302 147C 306.143 147 309.5 150.358 309.5 154.5C 309.5 158.642 306.143 162 302 162z" stroke="none" fill="#66CC33" fill-rule="nonzero" />
</g>
</svg>