<?xml version="1.0" standalone="no"?>
<!DOCTYPE svg PUBLIC "-//W3C//DTD SVG 1.0//EN" "http://www.w3.org/TR/2001/REC-SVG-20010904/DTD/svg10.dtd">
<svg xmlns="http://www.w3.org/2000/svg" xmlns:xlink="http://www.w3.org/1999/xlink" id="body_1" width="64" height="64">

<g transform="matrix(0.125 0 0 0.125 0 0)">
    <path transform="matrix(8 0 0 8 0 0)"  d="M6 6L8 6L8 8L6 8L6 6z" stroke="none" fill="#53B820" fill-rule="nonzero" />
    <path transform="matrix(8 0 0 8 0 0)"  d="M10 6L12 6L12 8L10 8L10 6z" stroke="none" fill="#53B820" fill-rule="nonzero" />
    <path transform="matrix(8 0 0 8 0 0)"  d="M14 6L16 6L16 8L14 8L14 6z" stroke="none" fill="#53B820" fill-rule="nonzero" />
    <path transform="matrix(8 0 0 8 0 0)"  d="M61 2L3 2C 2.447715 2 2 2.447715 2 3L2 3L2 61C 2 61.55228 2.447715 62 3 62L3 62L61 62C 61.55228 62 62 61.55228 62 61L62 61L62 3C 62 2.447715 61.55228 2 61 2zM60 10L20 10L20 4L60 4zM4 4L18 4L18 10L4 10zM6.824 19.984C 9.195017 20.46731 11.44146 21.43261 13.424 22.82C 13.82141 23.09715 14.36034 23.04954 14.703 22.707L14.703 22.707L17 20.414L19.586 23L17.293 25.293C 16.95046 25.63566 16.90285 26.17459 17.18 26.572C 18.56739 28.55454 19.53268 30.80098 20.016 33.172C 20.09951 33.65027 20.51449 33.99947 21 34L21 34L24 34L24 38L21 38C 20.51575 38.00019 20.10123 38.34732 20.016 38.824C 19.53268 41.19502 18.56739 43.44146 17.18 45.424C 16.90285 45.82141 16.95046 46.36034 17.293 46.703L17.293 46.703L19.586 49L17 51.586L14.707 49.293C 14.36434 48.95046 13.82541 48.90285 13.428 49.18C 11.44546 50.56739 9.199017 51.53268 6.828 52.016C 6.349723 52.09951 6.000532 52.51449 6 53L6 53L6 56L4 56L4 49C 11.1797 49 17 43.1797 17 36C 17 28.8203 11.1797 23 4 23L4 23L4 16L6 16L6 19C 6.000189 19.48425 6.347314 19.89877 6.824 19.984zM4 45C 8.970563 45 13 40.97056 13 36C 13 31.02944 8.970563 27 4 27L4 27L4 25C 10.07513 25 15 29.92487 15 36C 15 42.07513 10.07513 47 4 47zM4 29C 7.865993 29 11 32.13401 11 36C 11 39.86599 7.865993 43 4 43zM4 60L4 58L7 58C 7.552285 58 8 57.55228 8 57L8 57L8 53.812C 10.08158 53.29466 12.06493 52.44147 13.872 51.286L13.872 51.286L16.293 53.707C 16.6835 54.09738 17.3165 54.09738 17.707 53.707L17.707 53.707L21.707 49.707C 22.09738 49.3165 22.09738 48.6835 21.707 48.293L21.707 48.293L19.286 45.872C 20.44147 44.06493 21.29466 42.08158 21.812 40L21.812 40L25 40C 25.55228 40 26 39.55228 26 39L26 39L26 33C 26 32.44772 25.55228 32 25 32L25 32L21.812 32C 21.29466 29.91842 20.44147 27.93507 19.286 26.128L19.286 26.128L21.707 23.707C 22.09738 23.3165 22.09738 22.6835 21.707 22.293L21.707 22.293L17.707 18.293C 17.3165 17.90262 16.6835 17.90262 16.293 18.293L16.293 18.293L13.872 20.714C 12.06493 19.55853 10.08158 18.70534 8 18.188L8 18.188L8 15C 8 14.44771 7.552285 14 7 14L7 14L4 14L4 12L60 12L60 60z" stroke="none" fill="#53B820" fill-rule="nonzero" />
    <path transform="matrix(8 0 0 8 0 0)"  d="M28 40L58 40L58 32L28 32L28 40zM30 34L56 34L56 38L30 38z" stroke="none" fill="#53B820" fill-rule="nonzero" />
    <path transform="matrix(8 0 0 8 0 0)"  d="M28 30L58 30L58 22L28 22L28 30zM30 24L56 24L56 28L30 28z" stroke="none" fill="#53B820" fill-rule="nonzero" />
    <path transform="matrix(8 0 0 8 0 0)"  d="M28 50L58 50L58 42L28 42L28 50zM30 44L56 44L56 48L30 48z" stroke="none" fill="#53B820" fill-rule="nonzero" />
    <path transform="matrix(8 0 0 8 0 0)"  d="M38 18L48 18L48 20L38 20L38 18z" stroke="none" fill="#53B820" fill-rule="nonzero" />
    <path transform="matrix(8 0 0 8 0 0)"  d="M38 52L40 52L40 54L38 54L38 52z" stroke="none" fill="#53B820" fill-rule="nonzero" />
    <path transform="matrix(8 0 0 8 0 0)"  d="M42 52L44 52L44 54L42 54L42 52z" stroke="none" fill="#53B820" fill-rule="nonzero" />
    <path transform="matrix(8 0 0 8 0 0)"  d="M46 52L48 52L48 54L46 54L46 52z" stroke="none" fill="#53B820" fill-rule="nonzero" />
</g>
</svg>