<?xml version="1.0" standalone="no"?>
<!DOCTYPE svg PUBLIC "-//W3C//DTD SVG 1.0//EN" "http://www.w3.org/TR/2001/REC-SVG-20010904/DTD/svg10.dtd">
<svg xmlns="http://www.w3.org/2000/svg" xmlns:xlink="http://www.w3.org/1999/xlink" id="body_1" width="64" height="64">

<g transform="matrix(0.125 0 0 0.125 0 0)">
    <path transform="matrix(8 0 0 8 0 0)"  d="M34 35L4 35C 2.346 35 1 36.346 1 38L1 38L1 56C 1 57.654 2.346 59 4 59L4 59L13 59L13 61L10 61L10 63L28 63L28 61L25 61L25 59L34 59C 35.654 59 37 57.654 37 56L37 56L37 38C 37 36.346 35.654 35 34 35zM4 37L34 37C 34.552 37 35 37.449 35 38L35 38L35 51L3 51L3 38C 3 37.449 3.448 37 4 37zM23 61L15 61L15 59L23 59zM34 57L4 57C 3.448 57 3 56.551 3 56L3 56L3 53L35 53L35 56C 35 56.551 34.552 57 34 57z" stroke="none" fill="#66CC33" fill-rule="nonzero" />
    <path transform="matrix(8 0 0 8 0 0)"  d="M33 39L21 39L21 49L33 49L33 39zM31 47L23 47L23 41L31 41z" stroke="none" fill="#66CC33" fill-rule="nonzero" />
    <path transform="matrix(8 0 0 8 0 0)"  d="M5 39L7 39L7 41L5 41L5 39z" stroke="none" fill="#66CC33" fill-rule="nonzero" />
    <path transform="matrix(8 0 0 8 0 0)"  d="M9 39L19 39L19 41L9 41L9 39z" stroke="none" fill="#66CC33" fill-rule="nonzero" />
    <path transform="matrix(8 0 0 8 0 0)"  d="M5 43L19 43L19 45L5 45L5 43z" stroke="none" fill="#66CC33" fill-rule="nonzero" />
    <path transform="matrix(8 0 0 8 0 0)"  d="M5 47L19 47L19 49L5 49L5 47z" stroke="none" fill="#66CC33" fill-rule="nonzero" />
    <path transform="matrix(8 0 0 8 0 0)"  d="M47 51L49 51L49 53L47 53L47 51z" stroke="none" fill="#66CC33" fill-rule="nonzero" />
    <path transform="matrix(8 0 0 8 0 0)"  d="M43 51L45 51L45 53L43 53L43 51z" stroke="none" fill="#66CC33" fill-rule="nonzero" />
    <path transform="matrix(8 0 0 8 0 0)"  d="M47 39L49 39L49 41L47 41L47 39z" stroke="none" fill="#66CC33" fill-rule="nonzero" />
    <path transform="matrix(8 0 0 8 0 0)"  d="M43 39L45 39L45 41L43 41L43 39z" stroke="none" fill="#66CC33" fill-rule="nonzero" />
    <path transform="matrix(8 0 0 8 0 0)"  d="M63 30L63 26C 63 24.346 61.654 23 60 23L60 23L52 23L52 12C 52 10.346 50.654 9 49 9L49 9L29.896 9C 29.39 6.509 27.039 4.655 24.35 5.048C 23.217 2.593 20.77 1 18 1C 15.23 1 12.783 2.593 11.65 5.048C 8.612 4.604 6 7.028 6 10C 6 12.757 8.243 15 11 15L11 15L17 15L17 19.072C 14.652 19.405 12.645 20.894 11.65 23.048C 8.612 22.603 6 25.029 6 28C 6 30.757 8.243 33 11 33L11 33L25 33C 27.757 33 30 30.757 30 28C 30 25.029 27.389 22.603 24.35 23.048C 23.356 20.894 21.349 19.404 19 19.072L19 19.072L19 15L25 15C 27.414 15 29.434 13.279 29.899 11L29.899 11L49 11C 49.552 11 50 11.449 50 12L50 12L50 23L42 23C 40.346 23 39 24.346 39 26L39 26L39 30C 39 31.654 40.346 33 42 33L42 33L42 35C 40.346 35 39 36.346 39 38L39 38L39 42C 39 43.654 40.346 45 42 45L42 45L42 47C 40.346 47 39 48.346 39 50L39 50L39 54C 39 55.654 40.346 57 42 57L42 57L60 57C 61.654 57 63 55.654 63 54L63 54L63 50C 63 48.346 61.654 47 60 47L60 47L60 45C 61.654 45 63 43.654 63 42L63 42L63 38C 63 36.346 61.654 35 60 35L60 35L60 33C 61.654 33 63 31.654 63 30zM22.777 24.52L23.08 25.5L24.052 25.173C 24.396 25.056 24.706 25 25 25C 26.654 25 28 26.346 28 28C 28 29.654 26.654 31 25 31L25 31L11 31C 9.346 31 8 29.654 8 28C 8 26.346 9.346 25 11 25C 11.294 25 11.604 25.056 11.948 25.172L11.948 25.172L12.92 25.5L13.223 24.521C 13.874 22.415 15.794 21 18 21C 20.206 21 22.126 22.415 22.777 24.52zM25 13L11 13C 9.346 13 8 11.654 8 10C 8 8.346 9.346 7 11 7C 11.294 7 11.604 7.056 11.948 7.172L11.948 7.172L12.92 7.5L13.223 6.521C 13.874 4.415 15.794 3 18 3C 20.206 3 22.126 4.415 22.777 6.52L22.777 6.52L23.08 7.5L24.052 7.173C 24.396 7.056 24.706 7 25 7C 26.654 7 28 8.346 28 10C 28 11.654 26.654 13 25 13zM41 30L41 26C 41 25.449 41.448 25 42 25L42 25L60 25C 60.552 25 61 25.449 61 26L61 26L61 30C 61 30.551 60.552 31 60 31L60 31L42 31C 41.448 31 41 30.551 41 30zM61 50L61 54C 61 54.551 60.552 55 60 55L60 55L42 55C 41.448 55 41 54.551 41 54L41 54L41 50C 41 49.449 41.448 49 42 49L42 49L60 49C 60.552 49 61 49.449 61 50zM58 47L44 47L44 45L58 45zM61 38L61 42C 61 42.551 60.552 43 60 43L60 43L42 43C 41.448 43 41 42.551 41 42L41 42L41 38C 41 37.449 41.448 37 42 37L42 37L60 37C 60.552 37 61 37.449 61 38zM58 35L44 35L44 33L58 33z" stroke="none" fill="#66CC33" fill-rule="nonzero" />
    <path transform="matrix(8 0 0 8 0 0)"  d="M43 27L45 27L45 29L43 29L43 27z" stroke="none" fill="#66CC33" fill-rule="nonzero" />
    <path transform="matrix(8 0 0 8 0 0)"  d="M47 27L49 27L49 29L47 29L47 27z" stroke="none" fill="#66CC33" fill-rule="nonzero" />
</g>
</svg>