<?xml version="1.0" standalone="no"?>
<!DOCTYPE svg PUBLIC "-//W3C//DTD SVG 1.0//EN" "http://www.w3.org/TR/2001/REC-SVG-20010904/DTD/svg10.dtd">
<svg xmlns="http://www.w3.org/2000/svg" xmlns:xlink="http://www.w3.org/1999/xlink" id="body_1" width="64" height="48">

<g transform="matrix(0.0625 0 0 0.0625 0 0)">
    <path transform="matrix(1.5 0 0 1.5 128 0)"  d="M255.9 326L256.1 326C 256.1 326 256.1 326 256.1 326C 339.2 325.9 406 258.5 406 176C 406 93.2 338.8 26 256 26C 169.1 26.9 106 96 106 176C 106 258.7 173.2 326 255.9 326zM140.7 236L182.5 236C 188.1 260.8 196.9 281.5 207.9 296.8C 178.9 285.2 155 263.5 140.7 236zM379.7 136C 383.9 148.9 386 162.3 386 176C 386 189.7 383.9 203.1 379.7 216L379.7 216L333.2 216C 335.1 203.1 336 189.6 336 176C 336 162.4 335.1 149 333.2 136L333.2 136L379.7 136zM316 176C 316 189.7 315 203.1 313 216L313 216L266 216L266 136L313 136C 315 148.9 316 162.3 316 176zM246 304C 228.2 296.9 211.8 271.3 203 236L203 236L246 236L246 304zM266 303.9L266 236L308.9 236C 300.1 271.2 283.8 296.7 266 303.9zM266 116L266 48.1C 283.8 55.3 300.1 81 308.9 116L308.9 116L266 116zM246 47.9L246 116L203 116C 209 91.7 223.3 56.8 246 47.9zM246 136L246 216L199 216C 197 203.1 196 189.7 196 176C 196 162.3 197 148.9 199 136L199 136L246 136zM178.8 216L132.3 216C 128.2 203.4 126 190 126 176C 126 162.1 128.2 148.6 132.3 136L132.3 136L178.8 136C 177 149 176 162.4 176 176C 176 189.6 176.9 203 178.8 216zM304.1 296.6C 315.1 281.3 323.9 260.6 329.5 236L329.5 236L371.3 236C 356.8 263.7 332.6 285.1 304.1 296.6zM371.3 116L329.5 116C 323.9 91.4 315 70.7 304 55.4C 332.6 66.9 356.8 88.3 371.3 116zM207.9 55.2C 196.9 70.5 188 91.3 182.4 116L182.4 116L140.7 116C 155.1 88.6 179 66.8 207.9 55.2z" stroke="none" fill="#66CD33" fill-rule="nonzero" />
    <path transform="matrix(1.5 0 0 1.5 128 0)"  d="M471.9 392C 471.9 389.2386 470.9237 386.8815 468.9711 384.9289C 467.0185 382.9763 464.6614 382 461.9 382C 459.1386 382 456.7816 382.9763 454.8289 384.9289C 452.8763 386.8815 451.9 389.2386 451.9 392C 451.9 394.7615 452.8763 397.1185 454.8289 399.0711C 456.7816 401.0237 459.1386 402 461.9 402C 464.6614 402 467.0185 401.0237 468.9711 399.0711C 470.9237 397.1185 471.9 394.7615 471.9 392" stroke="none" fill="#414042" fill-rule="nonzero" />
    <path transform="matrix(1.5 0 0 1.5 128 0)"  d="M458 148.1C 441.9 151.8 432 167.8 435.5 183.8L435.5 183.8L446.3 248.6C 433.7 246.8 420.9 253.3 415.1 265.4L415.1 265.4L412.2 271.6C 400.5 296 383 316.8 360.4 340.4C 356 345 352.4 350.2 349.6 356C 342.1 371.6 341.7 389.2 348.3 405L348.3 405L316.4 471.7C 314.9 474.8 315.1 478.4 317 481.3C 318.8 484.2 322 486 325.5 486L325.5 486L412 486C 415.9 486 419.4 483.8 421 480.3C 429.5 462.5 438.7 447.6 446.5 435.5C 449.5 430.9 448.1 424.7 443.5 421.7C 438.9 418.7 432.7 420.1 429.7 424.7C 422.4001 436.1 414 449.7 405.8 466L405.8 466L341.4001 466L368.5001 409.3C 369.9001 406.5 369.8 403.2 368.3 400.4C 362.4001 389.1 362.2 376.1 367.7 364.6C 369.6 360.7 372 357.2 374.9001 354.2C 398.9001 329.2 417.4001 307 430.3 280.2L430.3 280.2L433.2 274C 435.6 269 441.6 266.9 446.5 269.3C 451.5 271.7 453.6 277.7 451.2 282.6L451.2 282.6L416.3 355.7C 413.9001 360.7 416.0001 366.7 421.0001 369C 426.0001 371.4 431.9001 369.3 434.3 364.3L434.3 364.3L469.2 291.2C 473 283.2 473.1 273.9 469.5 265.9C 456.9 190.4 455.2 180 455.1 179.6C 453.8 174.2 457.2 168.9 462.6 167.6C 467.9 166.4 473.3 169.6 474.6 175.1C 497.6 273.9 497.8 301.2 475.9 346.9L475.9 346.9L475.1 348.5C 472.7 353.5 474.8 359.5 479.7 361.9C 484.7 364.3 490.7 362.2 493.1 357.3L493.1 357.3L493.9 355.6C 518.1 305.1 518.1 274 494 170.6C 490.2 154.4 474.1 144.4 458 148.1z" stroke="none" fill="#414042" fill-rule="nonzero" />
    <path transform="matrix(1.5 0 0 1.5 128 0)"  d="M57.2 422.5C 69.2 440.8 80.4 458 91.10001 480.3C 92.8 483.8 96.3 486 100.1 486L100.1 486L186.6 486C 190 486 193.2 484.2 195.1 481.3C 196.9 478.4 197.1 474.8 195.7 471.7L195.7 471.7L163.8 405C 170.4 389.2 170 371.7 162.5 356C 159.7 350.2 156.1 345 151.7 340.4C 129.1 316.8 111.6 296 99.90001 271.6L99.90001 271.6L96.90001 265.4C 91.00001 253.1 78.00001 246.9 65.70001 248.6L65.70001 248.6L76.50002 183.8C 80.00002 167.9 70.10001 151.9 54.00002 148.1C 37.90002 144.3 21.70002 154.4 18.00002 170.5C -6 273.9 -6 305 18.1 355.5C 31.3 382.9 44.5 403.1 57.2 422.5zM37.5 175.1C 38.7 169.7 44.1 166.4 49.5 167.6C 54.9 168.8 58.2 174.2 57 179.6C 56.9 180.1 55.3 189.7 42.6 265.9C 39 273.9 39 283.3 42.9 291.2L42.9 291.2L77.8 364.3C 80.2 369.3 86.2 371.4 91.10001 369C 96.10001 366.6 98.2 360.6 95.8 355.7L95.8 355.7L60.8 282.6C 58.4 277.5 60.6 271.6 65.5 269.3C 70.5 266.9001 76.4 269.0001 78.8 274.0001L78.8 274.0001L81.8 280.2001C 94.60001 307.0001 113.2 329.2001 137.2 354.2001C 140.1 357.2001 142.5 360.8001 144.4 364.6001C 149.9 376.1001 149.7 389.1001 143.8 400.4001C 142.3 403.2 142.3 406.5001 143.6 409.3L143.6 409.3L170.7 466.0001L106.3 466.0001C 95.90001 445.2001 84.70001 428.1001 73.90001 411.6001C 61.50001 392.7001 48.70001 373.1001 36.10001 346.9001C 14.3 301.1 14.5 273.9 37.5 175.1z" stroke="none" fill="#414042" fill-rule="nonzero" />
</g>
</svg>