<svg fill="none" height="80" viewBox="0 0 80 80" width="80" xmlns="http://www.w3.org/2000/svg"><path clip-rule="evenodd" d="m50.3217 61.6733c1.0412-.4968 2.0409-1.0663 2.9927-1.7021l4.3092 4.3092c-4.948 3.5976-11.038 5.7196-17.6236 5.7196-12.6903 0-23.5402-7.8794-27.9243-19.0128l-.617-1.1427c.0551-.0275.1103-.0549.1655-.0822-1.0527-3.0604-1.6242-6.3446-1.6242-9.7623 0-16.5685 13.4315-30 30-30s30 13.4315 30 30c0 7.098-2.4651 13.6202-6.5858 18.7574l-4.2748-4.2748c.57-.7521 1.0967-1.5389 1.5764-2.3565-2.1794-.824-4.6272-1.618-7.3078-2.2759-.6442 4.0246-1.6812 7.9902-3.0863 11.8231zm-6.2006 1.9742c1.6686-3.8922 3.3966-8.9188 4.3264-14.7947-2.7354-.4288-5.6542-.6858-8.7275-.6858-3.103 0-6.0326.2468-8.762.6602.9021 5.9409 2.6001 10.9322 4.2573 14.6958 1.5462.3128 3.1463.477 4.7847.477 1.4052 0 2.7821-.1208 4.1211-.3525zm-15.1256-2.3134c-1.3493-3.746-2.3477-7.6163-2.9723-11.5424-2.5298.6074-4.8309 1.3366-6.8743 2.1007 2.2974 4.0194 5.7236 7.3106 9.8466 9.4417zm-11.8503-13.9877c2.702-1.0339 5.4737-1.8852 8.2889-2.5453-.1202-1.5594-.1811-3.1228-.1811-4.6863 0-2.6767.1783-5.3533.5278-8.009-2.5561-.5952-5.08-1.3478-7.5381-2.2495-1.439 3.0812-2.2427 6.5186-2.2427 10.1437 0 2.5624.4016 5.0311 1.1452 7.3464zm3.6362-21.7239c1.9077.6444 3.8587 1.1879 5.8329 1.6304.6224-2.9319 1.4536-5.8215 2.4836-8.6396-3.2806 1.6757-6.1247 4.084-8.3165 7.0092zm14.5972-9.178c-1.373 3.1834-2.793 7.1383-3.7813 11.7057 2.7118.3715 5.4359.5573 8.1228.5573 2.7307 0 5.4614-.2089 8.1625-.612-.9894-4.6822-2.4284-8.6551-3.8193-11.753-1.3208-.2252-2.6783-.3425-4.0633-.3425-1.5808 0-3.126.1528-4.6214.4445zm14.8404 1.8335c3.4462 1.6241 6.4434 4.0441 8.7546 7.0231-2.0179.7233-4.0798 1.3389-6.1713 1.8395-.6447-3.0097-1.5093-5.9745-2.5833-8.8626zm11.4892 11.4739c-2.6216.9939-5.3096 1.8021-8.0392 2.4244.3434 2.6326.5185 5.2855.5185 7.9385 0 1.5635-.0609 3.127-.1811 4.6864 2.988.7007 5.9269 1.6168 8.7856 2.7379.7838-2.3709 1.208-4.9055 1.208-7.5391 0-3.6661-.822-7.1402-2.2918-10.2481zm-21.9882 13.3825c-3.1111 0-6.2222.2387-9.3005.7054-.078-1.2112-.1198-2.4535-.1198-3.725 0-2.4563.1656-4.8135.4527-7.0569 2.9929.4504 5.9997.6821 8.9677.6821 3.0084 0 6.0167-.2146 8.9943-.6438.2709 2.2221.4264 4.5661.4264 7.0186 0 1.2685-.0441 2.5105-.1264 3.7241-3.0764-.4661-6.1854-.7045-9.2944-.7045z" fill="#FDB5AF" fill-rule="evenodd"/></svg>