<svg fill="none" height="80" viewBox="0 0 80 80" width="80" xmlns="http://www.w3.org/2000/svg"><g fill="#FDB5AF"><path d="m39.8789 19.8787-1.8789 1.8789v8.4853l6.1215-6.1216z"/><path d="m38.1215 46.1213-.1215-.1215v-8.2422l9.8789-9.8789 4.2426 4.2426z"/><path clip-rule="evenodd" d="m38 8 25.9209 8s.9704 18.9082-3.8881 29.3333c-5.2607 11.2881-22.0328 22.6667-22.0328 22.6667s-16.7721-11.3786-22.0328-22.6667c-4.8585-10.4251-3.8881-29.3333-3.8881-29.3333zm-19.999 12.4516 19.999-6.1723 19.999 6.1723c-.0072 1.6646-.0543 3.7123-.1892 5.9434-.3582 5.9224-1.295 12.2832-3.2154 16.4038-2.0702 4.442-6.7543 9.4203-11.5078 13.5907-1.8723 1.6426-3.6458 3.0665-5.0866 4.1742-1.4407-1.1077-3.2143-2.5316-5.0866-4.1742-4.7535-4.1704-9.4376-9.1487-11.5078-13.5907-1.9204-4.1205-2.8572-10.4814-3.2154-16.4038-.1349-2.2311-.182-4.2788-.1892-5.9434z" fill-rule="evenodd"/></g></svg>