<svg fill="none" height="80" viewBox="0 0 80 80" width="80" xmlns="http://www.w3.org/2000/svg"><g fill="#FDB5AF"><path clip-rule="evenodd" d="m39.779 61.9568c.3426-1.0434.8506-2.2266 1.6-3.4 2.0153-3.1558 6.0313-6.6719 14.6119-6.6719s12.5961 3.5161 14.6111 6.6718c.7493 1.1734 1.2572 2.3566 1.5997 3.4001zm39.0835 2.8853-.0002-.0041-.0004-.0093-.0012-.0232-.0037-.0641c-.0032-.0505-.0078-.1164-.0145-.1966-.0134-.1605-.0349-.379-.0694-.6473-.0689-.5356-.19-1.2757-.4022-2.1531-.4221-1.7451-1.219-4.0925-2.7304-6.4594-3.13-4.9019-9.0536-9.4433-19.6496-9.4433s-16.5199 4.5414-19.6502 9.4431c-1.5116 2.3669-2.3087 4.7142-2.731 6.4594-.2123.8773-.3334 1.6174-.4023 2.1531-.0345.2683-.0561.4868-.0695.6472-.0067.0803-.0113.1461-.0145.1966l-.0037.0641-.0012.0232-.0004.0094-.0002.0041-.1378 3.1581h46.0199z" fill-rule="evenodd"/><path d="m47.0018 27.1079c0-5.0063 4.0246-9.0647 8.9891-9.0647s8.989 4.0584 8.989 9.0647c0 .9118-.1335 1.7922-.3819 2.6223l4.7976 4.132c1.0091-2.0325 1.577-4.3265 1.577-6.7543 0-8.3439-6.7076-15.1079-14.9817-15.1079-8.2742 0-14.9818 6.764-14.9818 15.1079s6.7076 15.1079 14.9818 15.1079c4.1348 0 7.8785-1.6892 10.5893-4.4206l-4.5806-3.9452c-1.5923 1.444-3.6987 2.3227-6.0087 2.3227-4.9645 0-8.9891-4.0585-8.9891-9.0648z"/><path d="m20.3606 55.2849c2.9444-4.6106 8.3604-8.9024 17.8113-9.396l-7.792 8.0746c-2.4065 1.2824-3.9537 2.9847-4.981 4.5934-.7494 1.1734-1.2574 2.3565-1.6 3.3999h3.3468c-.2416 1.0345-.6024 5.3799-.6877 6.0432h-9.458l.6296-6.2558c.4223-1.7452 1.2195-4.0925 2.731-6.4593z"/><path d="m38.5216 36.0489c-4.2558-.7156-7.4999-4.4462-7.4999-8.941 0-4.4947 3.244-8.2254 7.4998-8.9409 1.1262-2.2318 2.6609-4.2188 4.5047-5.8609-.9741-.2007-1.9826-.3061-3.0155-.3061-8.2741 0-14.9817 6.7641-14.9817 15.1079 0 8.3439 6.7076 15.1079 14.9817 15.1079 1.033 0 2.0415-.1054 3.0156-.3061-1.8439-1.6421-3.3785-3.6291-4.5047-5.8608z"/><path d="m4.36058 55.2849c2.94443-4.6106 8.36042-8.9024 17.81132-9.396l-7.792 8.0745c-2.4065 1.2825-3.9537 2.9848-4.98102 4.5935-.74936 1.1734-1.25735 2.3565-1.59995 3.3999h3.34677c-.2416 1.0345-.6024 5.3799-.6877 6.0432h-9.458l.62964-6.2558c.42226-1.7452 1.21943-4.0925 2.73094-6.4593z"/><path d="m22.5216 36.0488c-4.2558-.7155-7.4999-4.4461-7.4999-8.9409 0-4.4947 3.244-8.2254 7.4998-8.9409 1.1262-2.2318 2.6609-4.2188 4.5047-5.8609-.9741-.2007-1.9826-.3061-3.0155-.3061-8.2741 0-14.98169 6.764-14.98169 15.1079s6.70759 15.1079 14.98169 15.1079c1.033 0 2.0415-.1054 3.0156-.3061-1.8439-1.6421-3.3785-3.6291-4.5047-5.8609z"/></g></svg>