<svg fill="none" height="80" viewBox="0 0 80 80" width="80" xmlns="http://www.w3.org/2000/svg"><g fill="#FDB5AF"><path d="m37 16v-8h6v8z"/><path d="m62 33h8v6h-8z"/><path d="m10 33h8v6h-8z"/><path d="m23.5355 21.7782-5.6568-5.6569 4.2426-4.2426 5.6569 5.6568z"/><path d="m56.4645 21.7782 5.6568-5.6569-4.2426-4.2426-5.6569 5.6568z"/><path clip-rule="evenodd" d="m46 52.9109c6.4281-2.4252 11-8.6342 11-15.9109 0-9.3888-7.6112-17-17-17s-17 7.6112-17 17c0 7.2767 4.5719 13.4857 11 15.9109v9.9462h12zm5-15.9109c0 6.0751-4.9249 11-11 11s-11-4.9249-11-11 4.9249-11 11-11 11 4.9249 11 11z" fill-rule="evenodd"/><path d="m46 67.4286-4 4.5714h-4l-4-4.5714z"/></g></svg>