<svg fill="none" height="80" viewBox="0 0 80 80" width="80" xmlns="http://www.w3.org/2000/svg"><path clip-rule="evenodd" d="m70 26s.001-16-29.9985-16-30.0015 16-30.0015 16l.0005.0264v30.1097l.0123.1356 2.9877-.2717c-2.9877.2717-2.987.2787-2.987.2787l.0006.0073.0015.0153.0036.0338.0096.0805c.0077.0592.0179.1294.0316.21.0273.161.0685.3635.1302.6014.1237.4759.33 1.0931.6731 1.8007.6925 1.4282 1.9146 3.1664 4.0335 4.8313 4.2234 3.3183 11.7302 6.141 25.1033 6.141s20.8798-2.8227 25.1033-6.141c2.1189-1.6649 3.341-3.4031 4.0335-4.8313.3431-.7076.5494-1.3248.673-1.8007.0618-.2379.103-.4404.1303-.6014.0137-.0806.0239-.1508.0315-.21l.0097-.0805.0035-.0338.0015-.0153.0007-.0073s.0007-.007-2.987-.2787l2.9877.2717.0123-.1355zm-53.9995 14.7301v-5.9664c4.2599 2.8228 11.5441 5.2363 23.9995 5.2363 12.4564 0 19.7407-2.4139 24.0005-5.2369v5.9633c-.0337.1278-.1088.3666-.2625.6834-.3075.6343-.9605 1.6461-2.3416 2.7312-2.7767 2.1817-8.77 4.859-21.3964 4.859s-18.6197-2.6773-21.3964-4.859c-1.3811-1.0851-2.0341-2.0969-2.3416-2.7312-.1522-.3138-.2273-.551-.2615-.6797zm0 8.932v6.0662c.0339.1282.109.3662.262.6816.3075.6342.9605 1.646 2.3416 2.7311 2.7767 2.1817 8.77 4.859 21.3964 4.859s18.6197-2.6773 21.3964-4.859c1.3811-1.0851 2.0341-2.0969 2.3416-2.7312.1529-.3153.2281-.5533.262-.6815v-6.0669c-4.3869 2.9585-11.7204 5.3386-24.0005 5.3386-12.2792 0-19.6125-2.3798-23.9995-5.3379zm.1952-24.3718c-.0794.2542-.1282.4657-.1577.6212.0193.0715.0457.158.0813.2575.1751.4903.61 1.4039 1.7251 2.4446 2.2189 2.0709 7.9823 5.3864 22.1556 5.3864s19.9367-3.3155 22.1556-5.3864c1.1151-1.0407 1.55-1.9543 1.7251-2.4446.0357-.0997.0621-.1864.0815-.258-.0295-.1555-.0783-.3672-.1578-.6217-.2385-.7634-.7597-1.936-1.9312-3.1858-2.246-2.396-7.8995-6.1035-21.8717-6.1035s-19.6267 3.7075-21.8736 6.1039c-1.172 1.25-1.6935 2.4229-1.9322 3.1864z" fill="#FDB5AF" fill-rule="evenodd"/></svg>