<?xml version="1.0" standalone="no"?>
<!DOCTYPE svg PUBLIC "-//W3C//DTD SVG 1.0//EN" "http://www.w3.org/TR/2001/REC-SVG-20010904/DTD/svg10.dtd">
<svg xmlns="http://www.w3.org/2000/svg" xmlns:xlink="http://www.w3.org/1999/xlink" id="body_1" width="64" height="64">

<g transform="matrix(0.125 0 0 0.125 0 0)">
    <path transform="matrix(1 0 0 1 0 0)"  d="M256 150C 297.355 150 331 116.355 331 75C 331 33.645 297.355 0 256 0L256 0L256 150zM256 15C 289.084 15 316 41.916 316 75C 316 108.084 289.084 135 256 135z" stroke="none" fill="#53B820" fill-rule="nonzero" />
    <path transform="matrix(1 0 0 1 0 0)"  d="M500.648 46.633C 493.331 39.513 483.658 35.751 473.451 36.027C 455.869 36.509 441.154 49.652 437.745 66.633C 420.282 69.82401 407 85.14101 407 103.512L407 103.512L407 198.578C 407 202.721 410.357 206.078 414.5 206.078C 418.643 206.078 422 202.721 422 198.578L422 198.578L422 103.512C 422 93.735 428.271 85.398 437 82.302L437 82.302L437 228.597C 422.326 217.662 400.976 219.069 387.542 232.503L387.542 232.503L283.27 336.775C 270.522 349.524 263.5 366.475 263.5 384.504L263.5 384.504L263.5 504.5C 263.5 508.643 266.857 512 271 512L271 512L472.953 512C 475.177 512 477.286 511.013 478.711 509.306C 480.137 507.598 480.731 505.347 480.332 503.159L480.332 503.159L474.877 473.159C 474.229 469.593 471.123 467.001 467.498 467.001L467.498 467.001L443.757 467.001L437.3871 431.967L505.5811 319.353C 505.649 319.241 505.7151 319.126 505.7771 319.01C 509.8471 311.411 511.9991 302.8391 511.9991 294.218L511.9991 294.218L511.9991 73.51205C 512.0001 63.30106 507.9691 53.75505 500.6481 46.63306L500.6481 46.63306L500.648 46.633zM463.967 497L278.5 497L278.5 482L461.239 482zM497 294.217C 497 300.312 495.494 306.373 492.645 311.759L492.645 311.759L423.085 426.627C 422.136 428.193 421.793 430.0519 422.121 431.8539L422.121 431.8539L428.511 466.9999L278.5 466.9999L278.5 384.5049C 278.5 370.4829 283.961 357.2979 293.877 347.382L293.877 347.382L398.149 243.11C 406.926 234.33 421.196 233.934 429.953 242.223C 434.412 246.445 436.914 252.142 436.998 258.267C 437.082 264.395 434.742 270.155 430.41 274.487L430.41 274.487L325.696 379.201C 322.767 382.131 322.767 386.879 325.696 389.808C 328.626 392.736 333.374 392.736 336.303 389.808L336.303 389.808L441.017 285.094C 448.114 277.996 451.994 268.595 451.991 258.577C 452 258.578 452 74.13597 452 74.13597C 452 61.72097 461.808 51.35197 473.862 51.02097C 480.003 50.85197 485.798 53.11297 490.188 57.38397C 494.581 61.65697 497 67.38497 497 73.51197z" stroke="none" fill="#53B820" fill-rule="nonzero" />
    <path transform="matrix(1 0 0 1 0 0)"  d="M383.173 211.675C 380.2 185.066 357.772 165 331.005 165L331.005 165L180.996 165C 154.228 165 131.801 185.065 128.828 211.674C 128.575 213.941 129.366 216.198 130.978 217.811C 164.373 251.206 208.773 269.597 256 269.597C 303.225 269.597 347.629 251.204 381.022 217.812C 382.634 216.199 383.426 213.941 383.173 211.675zM256 254.597C 214.043 254.597 174.523 238.735 144.29 209.849C 147.863 192.604 163.066 180 180.996 180L180.996 180L331.005 180C 348.935 180 364.137 192.604 367.71 209.849C 337.477 238.735 297.957 254.597 256 254.597z" stroke="none" fill="#53B820" fill-rule="nonzero" />
    <path transform="matrix(1 0 0 1 0 0)"  d="M248.5 384.505C 248.5 366.476 241.479 349.525 228.73 336.775L228.73 336.775L124.458 232.503C 111.022 219.067 89.67299 217.662 74.99999 228.597L74.99999 228.597L74.99999 82.30199C 83.72899 85.39799 89.99999 93.73499 89.99999 103.512L89.99999 103.512L89.99999 198.578C 89.99999 202.721 93.35799 206.078 97.49999 206.078C 101.642 206.078 105 202.721 105 198.578L105 198.578L105 103.512C 105 85.14098 91.71799 69.82498 74.25499 66.63298C 70.84499 49.65198 56.13099 36.50798 38.54799 36.02698C 28.31999 35.74098 18.66799 39.51298 11.35099 46.63298C 4.030988 53.75498 -1.144409E-05 63.30098 -1.144409E-05 73.51198L-1.144409E-05 73.51198L-1.144409E-05 294.217C -1.144409E-05 302.838 2.150989 311.41 6.221989 319.009C 6.283988 319.125 6.348989 319.239 6.416989 319.352L6.416989 319.352L74.61199 431.9659L68.24299 466.9999L44.50199 466.9999C 40.87699 466.9999 37.77199 469.5919 37.12299 473.1579L37.12299 473.1579L31.66799 503.1579C 31.26999 505.3459 31.86399 507.5979 33.28899 509.3049C 34.71399 511.0119 36.82299 511.9989 39.04699 511.9989L39.04699 511.9989L241 511.9989C 245.142 511.9989 248.5 508.6419 248.5 504.4989L248.5 504.4989L248.5 474.5889C 248.5 474.5589 248.5 474.5289 248.5 474.4989C 248.5 474.4689 248.5 474.4389 248.5 474.4089L248.5 474.4089L248.5 384.505zM233.5 497L48.034 497L50.761 482L233.5 482zM233.5 467L83.48801 467L89.87801 431.854C 90.20601 430.052 89.86301 428.194 88.91501 426.627L88.91501 426.627L19.35501 311.759C 16.50501 306.373 15.00001 300.312 15.00001 294.217L15.00001 294.217L15.00001 73.51204C 15.00001 67.38504 17.41901 61.65804 21.81201 57.38404C 26.20301 53.11304 31.99401 50.85504 38.13801 51.02104C 50.19201 51.35204 60.00001 61.72104 60.00001 74.13604L60.00001 74.13604L60.00001 258.578C 60.00501 268.597 63.88501 277.997 70.98301 285.095L70.98301 285.095L175.696 389.809C 178.624 392.737 183.373 392.737 186.302 389.809C 189.231 386.879 189.231 382.131 186.302 379.202L186.302 379.202L81.59002 274.487C 77.25802 270.155 74.91802 264.395 75.00202 258.267C 75.08602 252.142 77.58802 246.445 82.04702 242.223C 90.80402 233.932 105.071 234.33 113.851 243.11L113.851 243.11L218.123 347.381C 228.039 357.298 233.5 370.483 233.499 384.505L233.499 384.505L233.499 467z" stroke="none" fill="#53B820" fill-rule="nonzero" />
</g>
</svg>