<svg xmlns="http://www.w3.org/2000/svg" xmlns:xlink="http://www.w3.org/1999/xlink" viewBox="0 0 1250.02 128"><defs><style>.cls-1{fill:none;}.cls-2{fill:#fff;}.cls-3{isolation:isolate;}.cls-4{fill:#666;}.cls-5{fill:#6c3;}.cls-6{clip-path:url(#clip-path);}.cls-7{clip-path:url(#clip-path-2);}</style><clipPath id="clip-path"><path class="cls-1" d="M62.63,126.68a64,64,0,1,1,.2,0Z"/></clipPath><clipPath id="clip-path-2"><polygon class="cls-2" points="126.69 29.46 118.78 20.89 60.66 74.52 38.22 50.19 29.45 58.27 59.68 91.03 59.98 90.75 60.11 90.89 126.69 29.46"/></clipPath></defs><g id="Layer_2" data-name="Layer 2"><g id="Layer_1-2" data-name="Layer 1"><g class="cls-3"><g class="cls-3"><path class="cls-4" d="M155,12.73h14.9V101H155Z"/><path class="cls-4" d="M203.37,64.62V101H189.23V33.81h14.14V46.06A25.47,25.47,0,0,1,225.72,32.8q11.35,0,18.37,7t7,20.07V101H237V64.12q0-18.57-15.4-18.57a18.5,18.5,0,0,0-12.75,4.87Q203.37,55.28,203.37,64.62Z"/></g><g class="cls-3"><path class="cls-4" d="M288,45.18V79.27a11.1,11.1,0,0,0,2.52,7.64,9,9,0,0,0,7.07,2.84q4.56,0,8.72-4.42l5.8,10q-7.44,6.7-16.47,6.69a21.2,21.2,0,0,1-15.41-6.25q-6.37-6.24-6.37-16.85V45.18h-8.46V33.81h8.46V12.73H288V33.81h17.68V45.18Z"/></g><g class="cls-3"><path class="cls-4" d="M378.85,73.59H326.19a15.3,15.3,0,0,0,6.7,11.8A23.45,23.45,0,0,0,347,89.87q12.62,0,19.19-8l8.08,8.84Q363.44,102,346,102A33.68,33.68,0,0,1,322,92.59q-9.9-9.41-9.91-25.25t10.1-25.19A33.92,33.92,0,0,1,346,32.8q13.71,0,23.3,8.27t9.6,22.79ZM326.19,62.47H364.7q0-8.44-5.3-13a19.38,19.38,0,0,0-13.07-4.55,22.35,22.35,0,0,0-13.95,4.74A15.29,15.29,0,0,0,326.19,62.47Z"/><path class="cls-4" d="M454,33.81V92.4q0,17.8-9.66,26.7T419.5,128a43.66,43.66,0,0,1-27.4-9.47l6.7-10.73q9.84,7.45,19.88,7.45t15.91-5.18q5.87-5.17,5.87-16.54V85a24,24,0,0,1-9,9.47A25,25,0,0,1,418.24,98q-13.38,0-22-9.34t-8.59-23.23q0-13.89,8.59-23.23t21.91-9.35q13.32,0,21.65,11v-10Zm-52.4,31a21.29,21.29,0,0,0,5.12,14.27q5.12,6,13.76,6t14-5.8a20.48,20.48,0,0,0,5.37-14.46,21.06,21.06,0,0,0-5.43-14.65,18.06,18.06,0,0,0-14-6,16.86,16.86,0,0,0-13.7,6.18A22,22,0,0,0,401.57,64.81Z"/></g><g class="cls-3"><path class="cls-4" d="M508.4,47.07q-10.48,0-15.78,6.82t-5.3,18.31V101H473.18V33.81h14.14V47.32A29.14,29.14,0,0,1,496.6,37,22.42,22.42,0,0,1,509,32.8l.13,14.27Z"/></g><g class="cls-3"><path class="cls-4" d="M520.64,20.43A8.61,8.61,0,0,1,518,14.12a8.62,8.62,0,0,1,2.65-6.32,8.85,8.85,0,0,1,12.63,0,8.65,8.65,0,0,1,2.65,6.32,8.65,8.65,0,0,1-2.65,6.31,8.85,8.85,0,0,1-12.63,0ZM533.9,101H519.76V33.81H533.9Z"/></g><g class="cls-3"><path class="cls-4" d="M568.1,45.18V79.27a11.11,11.11,0,0,0,2.53,7.64,9,9,0,0,0,7.07,2.84q4.54,0,8.71-4.42l5.81,10q-7.46,6.7-16.48,6.69a21.18,21.18,0,0,1-15.4-6.25Q554,89.5,554,78.89V45.18H545.5V33.81H554V12.73H568.1V33.81h17.68V45.18Z"/></g><g class="cls-3"><path class="cls-4" d="M606.11,127.75a24.35,24.35,0,0,1-16.67-6.69l6.44-11.49q4.43,4.17,9.16,4.17a9.75,9.75,0,0,0,7.7-3.41,11.13,11.13,0,0,0,3-7.45q0-1.77-27.15-69.07h15.15l20.08,49.5,20.07-49.5H659l-32.58,79.8A24.3,24.3,0,0,1,618.11,124,20.48,20.48,0,0,1,606.11,127.75Z"/></g><g class="cls-3"><path class="cls-4" d="M707.61,80.91,698.77,101H682.86l38.89-88.25h15.91L776.55,101H760.64L751.8,80.91Zm38.13-13.76-16-36.37-16,36.37Z"/></g><g class="cls-3"><path class="cls-4" d="M785.16,92.4q-9.48-9.6-9.47-25.25t9.72-25a32.29,32.29,0,0,1,23.17-9.35q13.44,0,21.65,11.37V7.3h14.14V101H830.23V90.88Q822.4,102,807.38,102,794.63,102,785.16,92.4Zm4.67-24.69q0,9.66,6.19,15.72a20.07,20.07,0,0,0,14.52,6.06,18.76,18.76,0,0,0,14.14-6.12q5.8-6.12,5.81-15.72a23,23,0,0,0-5.81-16,18.45,18.45,0,0,0-14.27-6.44,19.22,19.22,0,0,0-14.52,6.44A22.55,22.55,0,0,0,789.83,67.71Z"/></g><g class="cls-3"><path class="cls-4" d="M880.32,101l-27-67.17H868L888.4,84.57l20.46-50.76H923.5l-27,67.17Z"/></g><g class="cls-3"><path class="cls-4" d="M982.24,92q-10.1,10-25.25,10T931.74,92a33.29,33.29,0,0,1-10.1-24.56,33.27,33.27,0,0,1,10.1-24.56q10.1-10,25.25-10t25.25,10a33.27,33.27,0,0,1,10.1,24.56A33.29,33.29,0,0,1,982.24,92Zm-40.46-8.72a21.95,21.95,0,0,0,30.43,0q6-6.12,6-15.84t-6-15.85a22,22,0,0,0-30.43,0q-6,6.14-6,15.85T941.78,83.24Z"/><path class="cls-4" d="M1035.65,102a33.88,33.88,0,0,1-24.11-9.53q-10.11-9.52-10.11-24.94T1012,42.46q10.53-9.66,25.69-9.66a34.88,34.88,0,0,1,25.63,10.48L1055,53.51q-8.71-7.57-17.55-7.58a22.15,22.15,0,0,0-15.34,5.87,19.48,19.48,0,0,0-6.5,15.16,22,22,0,0,0,22.28,22.15q9.41,0,17.74-8.58l8.33,9.09Q1051.69,102,1035.65,102Z"/><path class="cls-4" d="M1130,101h-12.88V92q-8.34,10-22.35,10-10.48,0-17.36-5.93t-6.88-15.85q0-9.9,7.32-14.83t19.83-4.93H1116V57.93q0-13.38-14.9-13.39-9.35,0-19.44,6.82l-6.31-8.84a43.47,43.47,0,0,1,27.77-9.72q11.88,0,19.39,6T1130,57.68Zm-14.14-25V70.3h-15.91q-15.29,0-15.28,9.6a8.52,8.52,0,0,0,3.79,7.51Q1092.21,90,1099,90a19.13,19.13,0,0,0,11.81-3.79A12.13,12.13,0,0,0,1115.83,76Z"/></g><g class="cls-3"><path class="cls-4" d="M1159.1,45.18V79.27a11.11,11.11,0,0,0,2.53,7.64,9,9,0,0,0,7.07,2.84q4.54,0,8.71-4.42l5.81,10q-7.46,6.7-16.48,6.69a21.18,21.18,0,0,1-15.4-6.25Q1145,89.5,1145,78.89V45.18h-8.46V33.81H1145V12.73h14.14V33.81h17.68V45.18Z"/></g><g class="cls-3"><path class="cls-4" d="M1250,73.59h-52.66a15.3,15.3,0,0,0,6.7,11.8,23.45,23.45,0,0,0,14.14,4.48q12.61,0,19.19-8l8.08,8.84Q1234.61,102,1217.19,102a33.68,33.68,0,0,1-24.06-9.4q-9.9-9.41-9.91-25.25t10.1-25.19a33.92,33.92,0,0,1,23.8-9.35q13.71,0,23.3,8.27t9.6,22.79Zm-52.66-11.12h38.51q0-8.44-5.3-13a19.39,19.39,0,0,0-13.07-4.55,22.35,22.35,0,0,0-14,4.74A15.29,15.29,0,0,0,1197.36,62.47Z"/></g></g><path class="cls-5" d="M62.63,126.68a64,64,0,1,1,.2,0Z"/><g class="cls-6"><polygon class="cls-2" points="126.69 29.46 118.78 20.89 60.66 74.52 38.22 50.19 29.45 58.27 59.68 91.03 59.98 90.75 60.11 90.89 126.69 29.46"/><g class="cls-7"><path class="cls-2" d="M62.63,126.68a64,64,0,1,1,.2,0Z"/></g></g></g></g></svg>