<?xml version="1.0" standalone="no"?>
<!DOCTYPE svg PUBLIC "-//W3C//DTD SVG 1.0//EN" "http://www.w3.org/TR/2001/REC-SVG-20010904/DTD/svg10.dtd">
<svg xmlns="http://www.w3.org/2000/svg" xmlns:xlink="http://www.w3.org/1999/xlink" id="body_1" width="64" height="48">

<g transform="matrix(0.0625 0 0 0.0625 0 0)">
    <path transform="matrix(1.5 0 0 1.5 128 0)"  d="M263.9 74.5C 167.4 74.5 88.89999 153 88.89999 249.5C 88.89999 346 167.4 424.5 263.9 424.5C 360.4 424.5 438.9 346 438.9 249.5C 438.9 153 360.5 74.5 263.9 74.5zM406.7 233.9L341.8 233.9C 337.4 185.2 313.6 138.4 295.9 109.5C 354.8 123 400.1 172.7 406.7 233.9zM310.2 233.9L217.3 233.9C 222.4 187.7 248.1 142 263.9 117.7C 279.6 141.9 305.2 187.6 310.2 233.9zM231.8 109.5C 214.1 138.3 190.2 185.1 185.7 233.8L185.7 233.8L121.1 233.8C 127.8 172.8 173 123 231.8 109.5zM121.2 265.3L185.8 265.3C 190.3 314 214.1 360.8 231.9 389.6C 173 376.1 127.8 326.4 121.2 265.3zM263.9 381.5C 248.1 357.3 222.4 311.6 217.3 265.3L217.3 265.3L310.2 265.3C 305.2 311.5 279.6 357.2 263.9 381.5zM295.9 389.6C 313.5 360.8 337.3 314 341.8 265.2L341.8 265.2L406.7 265.2C 400.1 326.4 354.8 376.2 295.9 389.6z" stroke="none" fill="#414042" fill-rule="nonzero" />
    <path transform="matrix(1.5 0 0 1.5 128 0)"  d="M438.6 73.4C 391.2 26.1 328.3 0 261.4 0C 194.5 0 131.5 26.1 84.1 73.4C 43.6 113.9 18 167.5 12.1 224.3C 6.5 277.7 18.3 332 45.4 378L45.4 378L0 512L134 466.6C 180 493.7 234.3 505.5 287.7 499.9C 344.5 493.9 398.1 468.3 438.6 427.9C 485.9 380.6 512 317.6 512 250.7C 512 183.7 485.9 120.8 438.6 73.4zM416.4 405.7C 344.5 477.6 230.1 490.4 144.3 436.1L144.3 436.1L138 432.1L50.09998 461.9L79.9 374L75.9 367.7C 21.6 281.9 34.4 167.5 106.3 95.60001C 191.8 10.10001 330.9 10.10001 416.4 95.60001C 501.9 181.1 501.9 320.2 416.4 405.7z" stroke="none" fill="#66CD33" fill-rule="nonzero" />
</g>
</svg>