<?xml version="1.0" standalone="no"?>
<!DOCTYPE svg PUBLIC "-//W3C//DTD SVG 1.0//EN" "http://www.w3.org/TR/2001/REC-SVG-20010904/DTD/svg10.dtd">
<svg xmlns="http://www.w3.org/2000/svg" xmlns:xlink="http://www.w3.org/1999/xlink" id="body_1" width="64" height="64">

<g transform="matrix(0.125 0 0 0.125 0 0)">
    <path transform="matrix(1.066667 0 0 1.066667 0 0)"  d="M440 64L392.976 64C 392.829 62.18 392.057 60.468 390.792 59.152L390.792 59.152L356.848 25.2C 353.674 22.199 348.71 22.199 345.536 25.2L345.536 25.2L331.136 39.648C 322.59 34.789 313.475 31.005 304 28.384L304 28.384L304 8C 304 3.582 300.418 0 296 0L296 0L248 0C 243.582 0 240 3.582 240 8L240 8L240 28.384C 230.539 31.008 221.438 34.792 212.904 39.648L212.904 39.648L198.504 25.2C 195.33 22.199 190.366 22.199 187.192 25.2L187.192 25.2L153.208 59.152C 151.942 60.468 151.171 62.18 151.024 64L151.024 64L40 64C 17.92 64.026 0.026 81.92 0 104L0 104L0 376C 0.026 398.08 17.92 415.974 40 416L40 416L197.752 416L184.24 470.064C 183.171 474.351 185.779 478.693 190.066 479.762C 190.699 479.92 191.348 480 192 480L192 480L288 480C 292.418 479.999 295.999 476.416 295.998 471.998C 295.998 471.346 295.918 470.697 295.76 470.064L295.76 470.064L282.248 416L440 416C 462.08 415.974 479.974 398.08 480 376L480 376L480 104C 479.974 81.92 462.08 64.026 440 64zM183.392 78.016L170.176 64.8L192.8 42.168L206.008 55.392C 208.669 58.06 212.831 58.51 216 56.472C 226.315 49.834 237.731 45.087 249.712 42.456C 253.384 41.652 256.001 38.399 256 34.64L256 34.64L256 16L288 16L288 34.64C 287.999 38.399 290.616 41.652 294.288 42.456C 306.269 45.087 317.685 49.834 328 56.472C 331.168 58.506 335.325 58.056 337.984 55.392L337.984 55.392L351.2 42.168L373.832 64.808L360.616 78.016C 357.949 80.673 357.496 84.831 359.528 88C 366.172 98.315 370.919 109.734 373.544 121.72C 374.352 125.389 377.603 128.001 381.36 128L381.36 128L400 128L400 160L381.36 160C 377.601 159.999 374.348 162.616 373.544 166.288C 370.918 178.271 366.171 189.688 359.528 200C 357.499 203.166 357.948 207.318 360.608 209.976L360.608 209.976L373.824 223.2L351.2 245.832L337.992 232.608C 335.331 229.94 331.169 229.49 328 231.528C 317.685 238.166 306.269 242.913 294.288 245.544C 290.616 246.348 287.999 249.601 288 253.36L288 253.36L288 272L256 272L256 253.36C 256.001 249.601 253.384 246.348 249.712 245.544C 241.661 243.753 233.855 240.997 226.464 237.336L226.464 237.336L229.28 235.736C 233.106 233.527 234.417 228.634 232.208 224.808L232.208 224.808L208.208 183.208C 205.999 179.382 201.106 178.071 197.28 180.28L197.28 180.28L183.808 188.056C 181.303 186.387 178.695 184.877 176 183.536L176 183.536L176 168C 176 163.582 172.418 160 168 160L168 160L144 160L144 128L162.64 128C 166.399 128.001 169.652 125.384 170.456 121.712C 173.082 109.729 177.829 98.312 184.472 88C 186.506 84.832 186.056 80.675 183.392 78.016zM199.392 240.248C 200.203 245.39 200.203 250.626 199.392 255.768C 198.957 258.985 200.509 262.145 203.32 263.768L203.32 263.768L214.352 270.168L198.352 297.864L187.328 291.512C 184.505 289.884 180.977 290.131 178.408 292.136C 174.315 295.331 169.801 297.945 164.992 299.904C 161.973 301.129 159.999 304.062 160 307.32L160 307.32L160 320L128 320L128 307.304C 128.001 304.046 126.027 301.113 123.008 299.888C 118.199 297.929 113.685 295.315 109.592 292.12C 107.023 290.115 103.495 289.868 100.672 291.496L100.672 291.496L89.64799 297.848L73.64799 270.152L84.67999 263.752C 87.49098 262.129 89.04298 258.969 88.60799 255.752C 87.79699 250.61 87.79699 245.374 88.60799 240.232C 89.04298 237.015 87.49099 233.855 84.67999 232.232L84.67999 232.232L73.64799 225.832L89.64799 198.136L100.672 204.488C 103.495 206.116 107.023 205.869 109.592 203.864C 113.685 200.669 118.199 198.055 123.008 196.096C 126.021 194.873 127.995 191.948 128 188.696L128 188.696L128 176L160 176L160 188.696C 159.999 191.954 161.973 194.887 164.992 196.112C 169.801 198.071 174.315 200.685 178.408 203.88C 180.977 205.885 184.505 206.132 187.328 204.504L187.328 204.504L198.352 198.152L214.352 225.848L203.32 232.248C 200.509 233.871 198.957 237.031 199.392 240.248zM202.248 464L214.248 416L265.752 416L277.752 464L202.248 464zM464 376C 464 389.255 453.255 400 440 400L440 400L40 400C 26.745 400 16 389.255 16 376L16 376L16 368L464 368L464 376zM464 352L16 352L16 104C 16 90.745 26.745 80 40 80L40 80L162.752 80L167.648 84.896C 162.789 93.431 159.006 102.535 156.384 112L156.384 112L136 112C 131.582 112 128 115.582 128 120L128 120L128 160L120 160C 115.582 160 112 163.582 112 168L112 168L112 183.536C 109.305 184.88 106.697 186.392 104.192 188.064L104.192 188.064L90.72 180.288C 86.894 178.079 82.001 179.39 79.792 183.216L79.792 183.216L55.792 224.816C 53.583 228.642 54.894 233.535 58.72 235.744L58.72 235.744L72.168 243.512C 72.056 245.112 72 246.568 72 248.032C 72 249.496 72.056 250.984 72.168 252.552L72.168 252.552L58.72 260.32C 54.922 262.528 53.615 267.385 55.792 271.2L55.792 271.2L79.792 312.8C 82.001 316.626 86.894 317.937 90.72 315.728L90.72 315.728L104.192 307.952C 106.697 309.624 109.305 311.136 112 312.48L112 312.48L112 328C 112 332.418 115.582 336 120 336L120 336L168 336C 172.418 336 176 332.418 176 328L176 328L176 312.464C 178.695 311.12 181.303 309.608 183.808 307.936L183.808 307.936L197.28 315.712C 201.106 317.921 205.999 316.61 208.208 312.784L208.208 312.784L232.208 271.184C 234.417 267.358 233.106 262.465 229.28 260.256L229.28 260.256L215.832 252.4879C 215.896 251.6079 215.896 250.7919 215.928 249.9439C 223.574 254.0399 231.646 257.2829 240 259.6159L240 259.6159L240 280C 240 284.418 243.582 288 248 288L248 288L296 288C 300.418 288 304 284.418 304 280L304 280L304 259.616C 313.461 256.992 322.562 253.208 331.096 248.352L331.096 248.352L345.496 262.8C 348.67 265.801 353.634 265.801 356.808 262.8L356.808 262.8L390.752 228.848C 393.875 225.724 393.875 220.66 390.752 217.536L390.752 217.536L376.352 203.136C 381.213 194.591 384.997 185.476 387.616 176L387.616 176L408 176C 412.418 176 416 172.418 416 168L416 168L416 120C 416 115.582 412.418 112 408 112L408 112L387.616 112C 384.994 102.535 381.211 93.431 376.352 84.896L376.352 84.896L381.248 80L440 80C 453.255 80 464 90.745 464 104L464 104L464 352z" stroke="none" fill="#66CC33" fill-rule="nonzero" />
    <path transform="matrix(1.066667 0 0 1.066667 0 0)"  d="M272 80C 236.654 80 208 108.654 208 144C 208.04 179.33 236.67 207.96 272 208C 307.346 208 336 179.346 336 144C 336 108.654 307.346 80 272 80zM272 192C 245.49 192 224 170.51 224 144C 224.026 117.501 245.501 96.026 272 96C 298.51 96 320 117.49 320 144C 320 170.51 298.51 192 272 192z" stroke="none" fill="#66CC33" fill-rule="nonzero" />
    <path transform="matrix(1.066667 0 0 1.066667 0 0)"  d="M144 208C 121.909 208 104 225.909 104 248C 104 270.091 121.909 288 144 288C 166.08 287.974 183.974 270.08 184 248C 184 225.909 166.091 208 144 208zM144 272C 130.745 272 120 261.255 120 248C 120 234.745 130.745 224 144 224C 157.255 224 168 234.745 168 248C 168 261.255 157.255 272 144 272z" stroke="none" fill="#66CC33" fill-rule="nonzero" />
</g>
</svg>