<?xml version="1.0" standalone="no"?>
<!DOCTYPE svg PUBLIC "-//W3C//DTD SVG 1.0//EN" "http://www.w3.org/TR/2001/REC-SVG-20010904/DTD/svg10.dtd">
<svg xmlns="http://www.w3.org/2000/svg" xmlns:xlink="http://www.w3.org/1999/xlink" id="body_1" width="64" height="64">

<g transform="matrix(0.125 0 0 0.125 0 0)">
    <path transform="matrix(1.000002 0 0 1.000002 0 0)"  d="M256.043 153.599L273.11 153.599C 277.823 153.599 281.643 149.778 281.643 145.066C 281.643 140.354 277.822 136.533 273.11 136.533L273.11 136.533L256.043 136.533C 251.33 136.533 247.51 140.353 247.51 145.066C 247.51 149.779 251.33 153.599 256.043 153.599z" stroke="none" fill="#66CC33" fill-rule="nonzero" />
    <path transform="matrix(1.000002 0 0 1.000002 0 0)"  d="M204.843 153.599L221.91 153.599C 226.623 153.599 230.443 149.778 230.443 145.066C 230.443 140.354 226.623 136.533 221.91 136.533L221.91 136.533L204.843 136.533C 200.13 136.533 196.31 140.353 196.31 145.066C 196.31 149.779 200.13 153.599 204.843 153.599z" stroke="none" fill="#66CC33" fill-rule="nonzero" />
    <path transform="matrix(1.000002 0 0 1.000002 0 0)"  d="M76.843 170.665C 90.981 170.665 102.443 159.203 102.443 145.065C 102.443 130.927 90.981 119.465 76.843 119.465C 62.705 119.465 51.243 130.926 51.243 145.065C 51.243 159.204 62.705 170.665 76.843 170.665zM76.843 136.532C 81.556 136.532 85.376 140.352 85.376 145.065C 85.376 149.778 81.556 153.598 76.843 153.598C 72.13 153.598 68.31001 149.777 68.31001 145.065C 68.31001 140.353 72.13 136.532 76.843 136.532z" stroke="none" fill="#66CC33" fill-rule="nonzero" />
    <path transform="matrix(1.000002 0 0 1.000002 0 0)"  d="M256.043 255.999L273.11 255.999C 277.823 255.999 281.643 252.179 281.643 247.466C 281.643 242.753 277.822 238.933 273.11 238.933L273.11 238.933L256.043 238.933C 251.33 238.933 247.51 242.753 247.51 247.466C 247.51 252.179 251.33 255.999 256.043 255.999z" stroke="none" fill="#66CC33" fill-rule="nonzero" />
    <path transform="matrix(1.000002 0 0 1.000002 0 0)"  d="M204.843 255.999L221.91 255.999C 226.623 255.999 230.443 252.179 230.443 247.466C 230.443 242.753 226.623 238.933 221.91 238.933L221.91 238.933L204.843 238.933C 200.13 238.933 196.31 242.753 196.31 247.466C 196.31 252.179 200.13 255.999 204.843 255.999z" stroke="none" fill="#66CC33" fill-rule="nonzero" />
    <path transform="matrix(1.000002 0 0 1.000002 0 0)"  d="M76.843 273.065C 90.981 273.065 102.443 261.604 102.443 247.465C 102.443 233.327 90.981 221.865 76.843 221.865C 62.705 221.865 51.243 233.326 51.243 247.465C 51.243 261.604 62.705 273.065 76.843 273.065zM76.843 238.932C 81.556 238.932 85.376 242.752 85.376 247.465C 85.376 252.178 81.556 255.998 76.843 255.998C 72.13 255.998 68.31001 252.178 68.31001 247.465C 68.31001 242.752 72.13 238.932 76.843 238.932z" stroke="none" fill="#66CC33" fill-rule="nonzero" />
    <path transform="matrix(1.000002 0 0 1.000002 0 0)"  d="M273.11 341.332L256.043 341.332C 251.33 341.332 247.51 345.152 247.51 349.865C 247.51 354.578 251.33 358.398 256.043 358.398L256.043 358.398L273.11 358.398C 277.823 358.398 281.643 354.578 281.643 349.865C 281.643 345.152 277.823 341.332 273.11 341.332z" stroke="none" fill="#66CC33" fill-rule="nonzero" />
    <path transform="matrix(1.000002 0 0 1.000002 0 0)"  d="M221.91 341.332L204.843 341.332C 200.13 341.332 196.31 345.152 196.31 349.865C 196.31 354.578 200.13 358.398 204.843 358.398L204.843 358.398L221.91 358.398C 226.623 358.398 230.443 354.578 230.443 349.865C 230.443 345.152 226.623 341.332 221.91 341.332z" stroke="none" fill="#66CC33" fill-rule="nonzero" />
    <path transform="matrix(1.000002 0 0 1.000002 0 0)"  d="M76.843 324.265C 62.705 324.265 51.243 335.727 51.243 349.865C 51.243 364.003 62.704 375.465 76.843 375.465C 90.982 375.465 102.443 364.004 102.443 349.865C 102.443 335.726 90.982 324.265 76.843 324.265zM76.843 358.399C 72.13 358.399 68.31001 354.579 68.31001 349.866C 68.31001 345.153 72.13 341.333 76.843 341.333C 81.556 341.333 85.376 345.153 85.376 349.866C 85.376 354.579 81.556 358.399 76.843 358.399z" stroke="none" fill="#66CC33" fill-rule="nonzero" />
    <path transform="matrix(1.000002 0 0 1.000002 0 0)"  d="M349.91 477.865L264.577 477.865C 264.577 468.439 256.936 460.798 247.51 460.798L247.51 460.798L196.31 460.798L196.31 409.598L298.71 409.598C 322.262 409.57 341.348 390.484 341.377 366.931L341.377 366.931L341.377 332.798C 341.339 319.316 334.908 306.651 324.046 298.665C 334.909 290.679 341.339 278.014 341.377 264.532L341.377 264.532L341.377 230.399C 341.339 216.917 334.908 204.252 324.046 196.266C 334.909 188.28 341.339 175.615 341.377 162.133L341.377 162.133L341.377 128C 341.349 104.448 322.263 85.36203 298.71 85.33303L298.71 85.33303L42.70999 85.33303C 19.157 85.36 0.071 104.446 0.043 127.999L0.043 127.999L0.043 162.132C 0.081 175.614 6.512 188.279 17.374 196.265C 6.510999 204.251 0.08099937 216.916 0.04299927 230.398L0.04299927 230.398L0.04299927 264.531C 0.08099927 278.013 6.511999 290.678 17.374 298.664C 6.510999 306.65 0.08099937 319.315 0.04299927 332.797L0.04299927 332.797L0.04299927 366.93C 0.07099926 390.482 19.157 409.568 42.71 409.597L42.71 409.597L145.11 409.597L145.11 460.797L93.91 460.797C 84.484 460.797 76.843 468.438 76.843 477.864L76.843 477.864L8.577 477.864C 3.864 477.864 0.04399967 481.684 0.04399967 486.397C 0.04399967 491.11 3.864 494.93 8.577 494.93L8.577 494.93L76.84399 494.93C 76.84399 504.356 84.48499 511.9969 93.911 511.9969L93.911 511.9969L247.511 511.9969C 256.937 511.9969 264.578 504.356 264.578 494.93L264.578 494.93L349.911 494.93C 354.624 494.93 358.444 491.11 358.444 486.397C 358.444 481.684 354.623 477.865 349.91 477.865zM17.11 162.132L17.11 127.999C 17.11 113.861 28.572 102.399 42.71 102.399L42.71 102.399L298.71 102.399C 312.848 102.399 324.31 113.86 324.31 127.999L324.31 127.999L324.31 162.132C 324.31 176.27 312.849 187.732 298.71 187.732L298.71 187.732L42.70999 187.732C 28.571 187.732 17.11 176.27 17.11 162.132zM17.11 264.532L17.11 230.399C 17.11 216.261 28.572 204.799 42.71 204.799L42.71 204.799L298.71 204.799C 312.848 204.799 324.31 216.261 324.31 230.399L324.31 230.399L324.31 264.532C 324.31 278.67 312.849 290.132 298.71 290.132L298.71 290.132L42.70999 290.132C 28.571 290.132 17.11 278.67 17.11 264.532zM42.71 392.532C 28.572 392.532 17.11 381.071 17.11 366.932L17.11 366.932L17.11 332.799C 17.11 318.661 28.572 307.199 42.71 307.199L42.71 307.199L298.71 307.199C 312.848 307.199 324.31 318.661 324.31 332.799L324.31 332.799L324.31 366.932C 324.31 381.07 312.849 392.532 298.71 392.532L298.71 392.532L42.71 392.532zM179.243 409.599L179.243 460.799L162.176 460.799L162.176 409.599L179.243 409.599zM247.51 494.932L93.91 494.932L93.91 477.865L247.51 477.865L247.51 494.932z" stroke="none" fill="#66CC33" fill-rule="nonzero" />
    <path transform="matrix(1.000002 0 0 1.000002 0 0)"  d="M432.639 57.128C 435.931 53.836 435.977 48.514 432.743 45.166L432.743 45.166L390.076 2.499C 389.281 1.703 388.335 1.073 387.294 0.6470001C 385.206 -0.2159999 382.862 -0.2159999 380.775 0.6470001C 379.734 1.073 378.788 1.702 377.993 2.499L377.993 2.499L335.326 45.166C 332.0919 48.514 332.138 53.837 335.43 57.128C 338.722 60.42 344.044 60.466 347.392 57.232L347.392 57.232L375.509 29.132L375.509 162.133C 375.509 166.846 379.329 170.666 384.042 170.666C 388.7549 170.666 392.575 166.846 392.575 162.133L392.575 162.133L392.575 29.131L420.675 57.231C 424.025 60.466 429.347 60.419 432.639 57.128z" stroke="none" fill="#66CC33" fill-rule="nonzero" />
    <path transform="matrix(1.000002 0 0 1.000002 0 0)"  d="M509.456 181.803C 506.164 178.511 500.842 178.465 497.494 181.699L497.494 181.699L497.477 181.699L469.377 209.799L469.377 76.799C 469.377 72.08601 465.557 68.26601 460.844 68.26601C 456.131 68.26601 452.311 72.08601 452.311 76.799L452.311 76.799L452.311 209.8L424.211 181.7C 420.863 178.466 415.54 178.512 412.249 181.804C 408.957 185.096 408.911 190.418 412.145 193.766L412.145 193.766L454.812 236.433C 456.413 238.038 458.587 238.94 460.854 238.94C 463.121 238.94 465.295 238.038 466.896 236.433L466.896 236.433L509.563 193.766C 512.794 190.417 512.748 185.094 509.456 181.803z" stroke="none" fill="#66CC33" fill-rule="nonzero" />
</g>
</svg>