<?xml version="1.0" standalone="no"?>
<!DOCTYPE svg PUBLIC "-//W3C//DTD SVG 1.0//EN" "http://www.w3.org/TR/2001/REC-SVG-20010904/DTD/svg10.dtd">
<svg xmlns="http://www.w3.org/2000/svg" xmlns:xlink="http://www.w3.org/1999/xlink" id="body_1" width="64" height="64">

<g transform="matrix(0.125 0 0 0.125 0 0)">
    <path transform="matrix(1 0 0 1 0 0)"  d="M467.7461 0L44.25 0C 19.85156 0 0 19.85156 0 44.25391L0 44.25391L0 299.4453C 0 323.8477 19.85156 343.6992 44.25 343.6992L44.25 343.6992L467.7461 343.6992C 492.1484 343.6992 512 323.8477 512 299.4453L512 299.4453L512 44.25391C 512 19.85156 492.1484 0 467.7461 0zM496.793 299.4453C 496.793 315.4609 483.7617 328.4922 467.7461 328.4922L467.7461 328.4922L44.25 328.4922C 28.23828 328.4922 15.20703 315.4609 15.20703 299.4453L15.20703 299.4453L15.20703 44.25391C 15.20703 28.23828 28.23828 15.20703 44.25 15.20703L44.25 15.20703L467.7461 15.20703C 483.7617 15.20703 496.793 28.23828 496.793 44.25391z" stroke="none" fill="#53B820" fill-rule="nonzero" />
    <path transform="matrix(1 0 0 1 0 0)"  d="M227.6133 60.83203L51.20313 60.83203C 47.00391 60.83203 43.59766 64.23438 43.59766 68.4375L43.59766 68.4375L43.59766 86.68359C 43.59766 90.88281 47.00391 94.28516 51.20313 94.28516C 55.40234 94.28516 58.80859 90.88281 58.80859 86.68359L58.80859 86.68359L58.80859 76.03906L220.0117 76.03906L220.0117 261.5781L58.80859 261.5781L58.80859 117.1016C 58.80859 112.9023 55.40234 109.4961 51.20313 109.4961C 47.00391 109.4961 43.59766 112.9023 43.59766 117.1016L43.59766 117.1016L43.59766 269.1797C 43.59766 273.3789 47.00391 276.7852 51.20313 276.7852L51.20313 276.7852L227.6133 276.7852C 231.8125 276.7852 235.2188 273.3789 235.2188 269.1797L235.2188 269.1797L235.2188 68.4375C 235.2188 64.23438 231.8125 60.83203 227.6133 60.83203z" stroke="none" fill="#53B820" fill-rule="nonzero" />
    <path transform="matrix(1 0 0 1 0 0)"  d="M462.832 78.46484L272.2266 78.46484C 268.0273 78.46484 264.6211 81.87109 264.6211 86.07031C 264.6211 90.26953 268.0273 93.67188 272.2266 93.67188L272.2266 93.67188L462.832 93.67188C 467.0313 93.67188 470.4336 90.26953 470.4336 86.07031C 470.4336 81.87109 467.0313 78.46484 462.832 78.46484z" stroke="none" fill="#53B820" fill-rule="nonzero" />
    <path transform="matrix(1 0 0 1 0 0)"  d="M462.832 133.625L420.25 133.625C 416.0508 133.625 412.6484 137.0273 412.6484 141.2266C 412.6484 145.4258 416.0508 148.832 420.25 148.832L420.25 148.832L462.832 148.832C 467.0313 148.832 470.4336 145.4258 470.4336 141.2266C 470.4336 137.0273 467.0313 133.625 462.832 133.625z" stroke="none" fill="#53B820" fill-rule="nonzero" />
    <path transform="matrix(1 0 0 1 0 0)"  d="M272.2266 148.832L389.832 148.832C 394.0313 148.832 397.4375 145.4258 397.4375 141.2266C 397.4375 137.0273 394.0313 133.625 389.832 133.625L389.832 133.625L272.2266 133.625C 268.0273 133.625 264.6211 137.0273 264.6211 141.2266C 264.6211 145.4258 268.0273 148.832 272.2266 148.832z" stroke="none" fill="#53B820" fill-rule="nonzero" />
    <path transform="matrix(1 0 0 1 0 0)"  d="M462.832 188.7852L272.2266 188.7852C 268.0273 188.7852 264.6211 192.1875 264.6211 196.3867C 264.6211 200.5859 268.0273 203.9922 272.2266 203.9922L272.2266 203.9922L462.832 203.9922C 467.0313 203.9922 470.4336 200.5859 470.4336 196.3867C 470.4336 192.1875 467.0313 188.7852 462.832 188.7852z" stroke="none" fill="#53B820" fill-rule="nonzero" />
    <path transform="matrix(1 0 0 1 0 0)"  d="M375.6406 243.9453L272.2266 243.9453C 268.0273 243.9453 264.6211 247.3477 264.6211 251.5469C 264.6211 255.7461 268.0273 259.1523 272.2266 259.1523L272.2266 259.1523L375.6406 259.1523C 379.8398 259.1523 383.2422 255.7461 383.2422 251.5469C 383.2422 247.3477 379.8398 243.9453 375.6406 243.9453z" stroke="none" fill="#53B820" fill-rule="nonzero" />
    <path transform="matrix(1 0 0 1 0 0)"  d="M86.17969 244.8477C 86.17969 249.0469 89.58594 252.4492 93.78516 252.4492C 97.98438 252.4492 101.3906 249.0469 101.3906 244.8477C 101.3906 223.8828 118.4453 206.8281 139.4102 206.8281C 160.375 206.8281 177.4297 223.8828 177.4297 244.8477C 177.4297 249.0469 180.832 252.4492 185.0313 252.4492C 189.2305 252.4492 192.6367 249.0469 192.6367 244.8477C 192.6367 225.5039 182.2656 208.543 166.793 199.2227C 182.2656 189.9023 192.6367 172.9414 192.6367 153.5977C 192.6367 124.25 168.7578 100.3711 139.4102 100.3711C 110.0586 100.3711 86.17969 124.25 86.17969 153.5977C 86.17969 172.9414 96.55469 189.9023 112.0273 199.2227C 96.55469 208.543 86.17969 225.5039 86.17969 244.8477zM101.3906 153.5977C 101.3906 132.6328 118.4453 115.5781 139.4102 115.5781C 160.375 115.5781 177.4297 132.6328 177.4297 153.5977z" stroke="none" fill="#53B820" fill-rule="nonzero" />
</g>
</svg>