<?xml version="1.0" standalone="no"?>
<!DOCTYPE svg PUBLIC "-//W3C//DTD SVG 1.0//EN" "http://www.w3.org/TR/2001/REC-SVG-20010904/DTD/svg10.dtd">
<svg xmlns="http://www.w3.org/2000/svg" xmlns:xlink="http://www.w3.org/1999/xlink" id="body_1" width="64" height="48">

<g transform="matrix(0.0625 0 0 0.0625 0 0)">
    <path transform="matrix(1.589601 0 0 1.589601 229.7345 0)"  d="M177.57 483.14C 175.257 483.1393 173.0226 482.3009 171.28 480.78C 140.0554 452.3556 111.4841 421.1466 85.92001 387.54C 28.91 312.71 0 242.79 0 179.71C -0.6777802 115.8215 33.01785 56.49386 88.23676 24.35234C 143.4557 -7.7892 211.6844 -7.789185 266.9033 24.35236C 322.1222 56.49389 355.8178 115.8215 355.14 179.71C 355.14 242.79 326.23 312.71 269.22 387.54C 243.6629 421.137 215.1017 452.339 183.89 480.76C 182.1411 482.2926 179.8954 483.1383 177.57 483.14zM177.57 21.28003C 90.21001 21.28003 19.14001 92.35003 19.14001 179.71C 19.14001 304.86 148.64 433.44 177.57 460.59C 206.5 433.44 336 304.86 336 179.71C 336 92.35 264.93 21.28 177.57 21.28z" stroke="none" fill="#65CE32" fill-rule="nonzero" />
    <path transform="matrix(1.589601 0 0 1.589601 229.7345 0)"  d="M177.57 323.14C 97.3 323.14 32 257.84 32 177.57C 32 97.30002 97.3 32 177.57 32L177.57 32L177.57 323.14zM177.57 51.14001C 107.7617 51.16412 51.18366 107.7617 51.18366 177.57C 51.18366 247.3783 107.7617 303.9759 177.57 304C 247.2 303.92 303.92 247.2 304 177.57C 303.9229 107.7766 247.3634 51.21716 177.57 51.14z" stroke="none" fill="#414042" fill-rule="nonzero" />
    <path transform="matrix(1.589601 0 0 1.589601 229.7345 0)"  d="M193.57 131.14C 179.4481 131.14 168 119.6919 168 105.57C 168 91.44806 179.4481 79.99998 193.57 79.99999C 207.692 80 219.14 91.44807 219.14 105.57C 219.1235 119.6851 207.6851 131.1235 193.57 131.14zM193.57 99.14C 190.9693 99.13999 188.6247 100.7066 187.6295 103.1093C 186.6342 105.5121 187.1843 108.2777 189.0233 110.1167C 190.8623 111.9557 193.6279 112.5058 196.0307 111.5105C 198.4334 110.5153 200 108.1707 200 105.57C 199.9945 102.0211 197.1189 99.14551 193.57 99.14z" stroke="none" fill="#414042" fill-rule="nonzero" />
    <path transform="matrix(1.589601 0 0 1.589601 229.7345 0)"  d="M73.7 219.91L154.81 138.8C 158.5469 135.0654 164.6031 135.0654 168.34 138.8L168.34 138.8L193.57 164L210.81 146.76C 214.5469 143.0254 220.6031 143.0254 224.34 146.76L224.34 146.76L289.45 211.87L275.92 225.41L217.57 167.1L207.1 177.57L249.45 219.91L235.92 233.45L161.57 159.1L87.23 233.45L73.7 219.91z" stroke="none" fill="#414042" fill-rule="nonzero" />
</g>
</svg>