<?xml version="1.0" standalone="no"?>
<!DOCTYPE svg PUBLIC "-//W3C//DTD SVG 1.0//EN" "http://www.w3.org/TR/2001/REC-SVG-20010904/DTD/svg10.dtd">
<svg xmlns="http://www.w3.org/2000/svg" xmlns:xlink="http://www.w3.org/1999/xlink" id="body_1" width="64" height="48">

<g transform="matrix(0.0625 0 0 0.0625 0 0)">
    <path transform="matrix(1.5 0 0 1.5 128 0)"  d="M245.3 353.2C 186.8 353.2 139.2 302 139.2 238.6L139.2 238.6L172 238.6C 172 284.5 204.9 320.5 245.3 320.5C 285.7 320.5 318.6 284.6 318.6 238.6L318.6 238.6L351.4 238.6C 351.4 302 303.8 353.2 245.3 353.2z" stroke="none" fill="#414042" fill-rule="nonzero" />
    <path transform="matrix(1.5 0 0 1.5 128 0)"  d="M412.5 172.3L412.5 69L379.7 69L379.7 173.4C 374.2 178.4 370 186 370 194.6C 370 209.7 382.4 221.9 397.5 221.9C 412.6 221.9 424.5 209.7 424.5 194.6C 424.5 185.4 420.2 177.3 412.5 172.3z" stroke="none" fill="#66CC33" fill-rule="nonzero" />
    <path transform="matrix(1.5 0 0 1.5 128 0)"  d="M403.3 55.5L252.2 1C 248.5 -0.3 244.4 -0.3 240.8 1.1L240.8 1.1L98 55.6C 84.3 60.9 83.9 81 97.7 86.3L97.7 86.3L136 101L136 179.8C 136 186 139.7 191.6 145.2 194.4C 207.5 226.3 283.3 226.3 345.6 194.4C 351.1 191.6 354.6 186 354.6 179.8L354.6 179.8L354.6 103.9L403.2 86.4C 417.4 81.2 417.3 60.6 403.3 55.5zM246.7 33.9L349.4 71L246.7 108L149.7 70.9L246.7 33.9zM321.8 169.5C 272.6 191.1 216.8 191.1 168.7 169.5L168.7 169.5L168.7 113.5L240.4 140.8C 244.3 142.2 248 142.2 252 140.9L252 140.9L321.8 115.7L321.8 169.5z" stroke="none" fill="#414042" fill-rule="nonzero" />
    <path transform="matrix(1.5 0 0 1.5 128 0)"  d="M381.2 512L106.6 512C 97.5 512 90 504.6 90 495.5L90 495.5L90 446.5C 90 395.3 131.9 353.6 183.4 353.6C 188.1 353.6 192.7 355.6 195.8 359.2L195.8 359.2L241.7 411.2L291.7 359.1C 294.7 355.6 299.2 353.3 304.2 353.3C 355.7 353.3 397.1 395.2 397.1 446.5L397.1 446.5L397.1 495.5C 397.2 504.6 390.3 512 381.2 512zM122.8 479.2L364.4 479.2L364.4 446.6C 364.4 415.6 341 390 310.8 386.7L310.8 386.7L253.1 446.9C 246.6 453.7 235.1 453.5 228.8 446.4L228.8 446.4L176.2 386.9C 146.2 390.4 122.8 415.8 122.8 446.6L122.8 446.6L122.8 479.2z" stroke="none" fill="#414042" fill-rule="nonzero" />
</g>
</svg>