<?xml version="1.0" standalone="no"?>
<!DOCTYPE svg PUBLIC "-//W3C//DTD SVG 1.0//EN" "http://www.w3.org/TR/2001/REC-SVG-20010904/DTD/svg10.dtd">
<svg xmlns="http://www.w3.org/2000/svg" xmlns:xlink="http://www.w3.org/1999/xlink" id="body_1" width="64" height="64">

<g transform="matrix(0.125 0 0 0.125 0 0)">
    <path transform="matrix(1 0 0 1 0 0)"  d="M486.367 109.472L454.837 109.472L454.837 69.964C 454.837 54.866 442.554 42.584 427.456 42.584L427.456 42.584L418.839 42.584C 414.696 42.584 411.339 45.941 411.339 50.084C 411.339 54.227 414.696 57.584 418.839 57.584L418.839 57.584L427.456 57.584C 434.283 57.584 439.837 63.138 439.837 69.964L439.837 69.964L439.837 142.483C 439.837 149.309 434.283 154.863 427.456 154.863L427.456 154.863L84.547 154.863C 77.72099 154.863 72.167 149.309 72.167 142.483L72.167 142.483L72.167 117.051C 72.167 117.025 72.171 117 72.171 116.974C 72.171 116.948 72.167 116.923 72.167 116.897L72.167 116.897L72.167 69.966C 72.167 63.14 77.721 57.586 84.547 57.586L84.547 57.586L388.506 57.586C 392.649 57.586 396.006 54.229 396.006 50.086C 396.006 45.943 392.649 42.586 388.506 42.586L388.506 42.586L84.547 42.586C 69.449 42.586 57.167 54.868 57.167 69.966L57.167 69.966L57.167 109.475L25.63 109.475C 11.497 109.475 0 120.977 0 135.115L0 135.115L0 398.779C 0 412.912 11.497 424.409 25.63 424.409L25.63 424.409L178.502 424.409C 182.645 424.409 186.002 421.052 186.002 416.909C 186.002 412.766 182.645 409.406 178.502 409.406L178.502 409.406L25.63 409.406C 19.769 409.406 15 404.637 15 398.776L15 398.776L15 135.112C 15 129.245 19.769 124.472 25.63 124.472L25.63 124.472L57.166 124.472L57.166 142.482C 57.166 157.58 69.448 169.862 84.546 169.862L84.546 169.862L427.454 169.862C 442.552 169.862 454.835 157.58 454.835 142.482L454.835 142.482L454.835 124.472L486.365 124.472C 492.226 124.472 496.995 129.244 496.995 135.112L496.995 135.112L496.995 202.023C 496.995 206.166 500.352 209.523 504.495 209.523C 508.638 209.523 511.995 206.166 511.995 202.023L511.995 202.023L511.995 135.112C 511.997 120.974 500.5 109.472 486.367 109.472z" stroke="none" fill="#66CC33" fill-rule="nonzero" />
    <path transform="matrix(1 0 0 1 0 0)"  d="M504.5 224.857C 500.357 224.857 497 228.214 497 232.357L497 232.357L497 398.779C 497 404.641 492.23 409.411 486.368 409.411L486.368 409.411L431.988 409.411C 429.38 409.411 426.958 410.766 425.594 412.991L425.594 412.991L402.113 451.29C 400.384 454.111 397.633 454.416 396.53 454.416C 395.427 454.416 392.676 454.111 390.947 451.291L390.947 451.291L367.467 412.992C 366.104 410.767 363.683 409.412 361.073 409.412L361.073 409.412L208.835 409.412C 204.692 409.412 201.335 412.769 201.335 416.912C 201.335 421.055 204.692 424.412 208.835 424.412L208.835 424.412L356.873 424.412L378.159 459.131C 382.107 465.571 388.975 469.416 396.53 469.416C 404.085 469.416 410.952 465.57 414.9 459.13L414.9 459.13L436.186 424.412L486.367 424.412C 500.501 424.412 511.999 412.914 511.999 398.78L511.999 398.78L511.999 232.357C 512 228.214 508.643 224.857 504.5 224.857z" stroke="none" fill="#66CC33" fill-rule="nonzero" />
    <path transform="matrix(1 0 0 1 0 0)"  d="M114.771 189.758L63.305 189.758C 59.162 189.758 55.805 193.115 55.805 197.258C 55.805 201.401 59.162 204.758 63.305 204.758L63.305 204.758L114.771 204.758C 118.914 204.758 122.271 201.401 122.271 197.258C 122.271 193.115 118.914 189.758 114.771 189.758z" stroke="none" fill="#66CC33" fill-rule="nonzero" />
    <path transform="matrix(1 0 0 1 0 0)"  d="M359.757 221.716L63.305 221.716C 59.162 221.716 55.805 225.073 55.805 229.216C 55.805 233.359 59.162 236.716 63.305 236.716L63.305 236.716L359.757 236.716C 363.9 236.716 367.257 233.358 367.257 229.216C 367.257 225.073 363.9 221.716 359.757 221.716z" stroke="none" fill="#66CC33" fill-rule="nonzero" />
    <path transform="matrix(1 0 0 1 0 0)"  d="M265.442 280.376L98.047 280.376C 93.904 280.376 90.547 283.733 90.547 287.876C 90.547 292.019 93.904 295.376 98.047 295.376L98.047 295.376L265.441 295.376C 269.584 295.376 272.941 292.019 272.941 287.876C 272.941 283.733 269.585 280.376 265.442 280.376z" stroke="none" fill="#66CC33" fill-rule="nonzero" />
    <path transform="matrix(1 0 0 1 0 0)"  d="M362.937 318.206L98.047 318.206C 93.904 318.206 90.547 321.563 90.547 325.706C 90.547 329.849 93.904 333.206 98.047 333.206L98.047 333.206L362.937 333.206C 367.08 333.206 370.437 329.849 370.437 325.706C 370.437 321.563 367.08 318.206 362.937 318.206z" stroke="none" fill="#66CC33" fill-rule="nonzero" />
    <path transform="matrix(1 0 0 1 0 0)"  d="M431.171 356.035L98.047 356.035C 93.904 356.035 90.547 359.392 90.547 363.535C 90.547 367.678 93.904 371.035 98.047 371.035L98.047 371.035L431.171 371.035C 435.314 371.035 438.671 367.678 438.671 363.535C 438.671 359.392 435.314 356.035 431.171 356.035z" stroke="none" fill="#66CC33" fill-rule="nonzero" />
    <path transform="matrix(1 0 0 1 0 0)"  d="M359.757 189.758L148.833 189.758C 144.69 189.758 141.333 193.115 141.333 197.258C 141.333 201.401 144.69 204.758 148.833 204.758L148.833 204.758L359.757 204.758C 363.9 204.758 367.257 201.401 367.257 197.258C 367.257 193.115 363.9 189.758 359.757 189.758z" stroke="none" fill="#66CC33" fill-rule="nonzero" />
    <path transform="matrix(1 0 0 1 0 0)"  d="M54.099 273.118C 49.956 273.118 46.599 276.476 46.599 280.618L46.599 280.618L46.599 294.636C 46.599 298.779 49.956 302.136 54.099 302.136C 58.242 302.136 61.599 298.779 61.599 294.636L61.599 294.636L61.599 280.618C 61.599 276.475 58.242 273.118 54.099 273.118z" stroke="none" fill="#66CC33" fill-rule="nonzero" />
    <path transform="matrix(1 0 0 1 0 0)"  d="M72.51 273.118C 68.367 273.118 65.01 276.476 65.01 280.618L65.01 280.618L65.01 294.636C 65.01 298.779 68.367 302.136 72.51 302.136C 76.653 302.136 80.01 298.779 80.01 294.636L80.01 294.636L80.01 280.618C 80.01 276.475 76.653 273.118 72.51 273.118z" stroke="none" fill="#66CC33" fill-rule="nonzero" />
    <path transform="matrix(1 0 0 1 0 0)"  d="M456.698 345.671C 452.555 345.671 449.198 349.028 449.198 353.171L449.198 353.171L449.198 367.189C 449.198 371.332 452.555 374.689 456.698 374.689C 460.841 374.689 464.198 371.332 464.198 367.189L464.198 367.189L464.198 353.171C 464.198 349.028 460.841 345.671 456.698 345.671z" stroke="none" fill="#66CC33" fill-rule="nonzero" />
    <path transform="matrix(1 0 0 1 0 0)"  d="M475.109 345.671C 470.966 345.671 467.609 349.028 467.609 353.171L467.609 353.171L467.609 367.189C 467.609 371.332 470.966 374.689 475.109 374.689C 479.252 374.689 482.609 371.332 482.609 367.189L482.609 367.189L482.609 353.171C 482.61 349.028 479.253 345.671 475.109 345.671z" stroke="none" fill="#66CC33" fill-rule="nonzero" />
    <path transform="matrix(1 0 0 1 0 0)"  d="M331.345 280.376L298.4 280.376C 294.257 280.376 290.9 283.733 290.9 287.876C 290.9 292.019 294.257 295.376 298.4 295.376L298.4 295.376L331.344 295.376C 335.487 295.376 338.844 292.019 338.844 287.876C 338.844 283.733 335.488 280.376 331.345 280.376z" stroke="none" fill="#66CC33" fill-rule="nonzero" />
    <path transform="matrix(1 0 0 1 0 0)"  d="M253.289 97.85C 252.407 95.134 250.06 93.156 247.234 92.746L247.234 92.746L230.518 90.317L223.043 75.17C 221.779 72.61 219.173 70.989 216.317 70.989C 213.463 70.989 210.855 72.61 209.591 75.17L209.591 75.17L202.115 90.317L185.399 92.746C 182.574 93.15601 180.226 95.135 179.344 97.85001C 178.462 100.565 179.198 103.545 181.241 105.538L181.241 105.538L193.337 117.329L190.482 133.977C 190 136.79 191.157 139.634 193.466 141.312C 195.775 142.989 198.836 143.213 201.364 141.883L201.364 141.883L216.315 134.024L231.265 141.883C 232.363 142.46 233.561 142.744 234.754 142.744C 236.31 142.744 237.857 142.261 239.163 141.311C 241.473 139.633 242.63 136.79 242.147 133.976L242.147 133.976L239.292 117.328L251.388 105.537C 253.436 103.545 254.172 100.564 253.289 97.85zM226.002 109.34C 224.234 111.063 223.428 113.545 223.846 115.978L223.846 115.978L224.798 121.535L219.809 118.912C 217.624 117.764 215.015 117.764 212.829 118.912L212.829 118.912L207.839 121.536L208.791 115.978C 209.209 113.545 208.402 111.063 206.635 109.34L206.635 109.34L202.598 105.404L208.177 104.593C 210.62 104.239 212.732 102.704 213.824 100.49L213.824 100.49L216.319 95.43401L218.813 100.49C 219.906 102.704 222.017 104.238 224.46 104.593L224.46 104.593L230.039 105.404L226.002 109.34z" stroke="none" fill="#66CC33" fill-rule="nonzero" />
    <path transform="matrix(1 0 0 1 0 0)"  d="M331.969 97.85C 331.087 95.134 328.74 93.156 325.914 92.746L325.914 92.746L309.199 90.317L301.723 75.17C 300.459 72.61 297.852 70.989 294.997 70.989C 292.142 70.989 289.535 72.61 288.271 75.17L288.271 75.17L280.795 90.317L264.0789 92.746C 261.2539 93.15601 258.9059 95.135 258.024 97.85001C 257.142 100.565 257.878 103.545 259.921 105.538L259.921 105.538L272.0179 117.328L269.1629 133.976C 268.6799 136.789 269.8369 139.633 272.1459 141.311C 274.4549 142.988 277.5159 143.212 280.0439 141.882L280.0439 141.882L294.9949 134.023L309.9459 141.882C 311.0439 142.459 312.2419 142.743 313.4349 142.743C 314.9909 142.743 316.5379 142.26 317.8439 141.31C 320.1539 139.632 321.3109 136.789 320.8269 133.975L320.8269 133.975L317.9719 117.327L330.0679 105.536C 332.115 103.545 332.851 100.564 331.969 97.85zM304.681 109.34C 302.913 111.063 302.107 113.545 302.525 115.978L302.525 115.978L303.478 121.535L298.488 118.912C 297.395 118.338 296.196 118.051 294.998 118.051C 293.8 118.051 292.601 118.338 291.508 118.912L291.508 118.912L286.518 121.535L287.471 115.978C 287.889 113.545 287.082 111.063 285.315 109.339L285.315 109.339L281.278 105.404L286.856 104.593C 289.299 104.239 291.411 102.704 292.5031 100.49L292.5031 100.49L294.998 95.43401L297.493 100.49C 298.586 102.704 300.6971 104.238 303.14 104.593L303.14 104.593L308.718 105.404L304.681 109.34z" stroke="none" fill="#66CC33" fill-rule="nonzero" />
    <path transform="matrix(1 0 0 1 0 0)"  d="M175.298 97.85C 174.416 95.134 172.069 93.156 169.243 92.746L169.243 92.746L152.527 90.317L145.051 75.17C 143.787 72.61 141.18 70.989 138.325 70.989C 135.47 70.989 132.863 72.61 131.599 75.17L131.599 75.17L124.124 90.317L107.408 92.746C 104.583 93.15601 102.235 95.135 101.353 97.85001C 100.471 100.565 101.207 103.545 103.25 105.538L103.25 105.538L115.346 117.329L112.491 133.977C 112.009 136.79 113.166 139.634 115.475 141.312C 116.782 142.261 118.329 142.745 119.884 142.745C 121.077 142.745 122.276 142.461 123.373 141.884L123.373 141.884L138.323 134.025L153.274 141.884C 155.802 143.214 158.864 142.989 161.172 141.313C 163.482 139.635 164.639 136.792 164.156 133.978L164.156 133.978L161.301 117.33L173.397 105.539C 175.444 103.545 176.18 100.564 175.298 97.85zM148.011 109.34C 146.243 111.063 145.437 113.545 145.855 115.978L145.855 115.978L146.807 121.536L141.817 118.912C 140.724 118.338 139.526 118.051 138.327 118.051C 137.129 118.051 135.93 118.338 134.837 118.912L134.837 118.912L129.848 121.535L130.8 115.978C 131.218 113.545 130.411 111.063 128.644 109.34L128.644 109.34L124.607 105.404L130.186 104.593C 132.629 104.239 134.741 102.704 135.833 100.49L135.833 100.49L138.327 95.43401L140.822 100.49C 141.915 102.704 144.026 104.238 146.469 104.593L146.469 104.593L152.048 105.404L148.011 109.34z" stroke="none" fill="#66CC33" fill-rule="nonzero" />
    <path transform="matrix(1 0 0 1 0 0)"  d="M410.645 97.849C 409.763 95.133 407.416 93.155 404.59 92.745L404.59 92.745L387.874 90.31599L380.402 75.16899C 379.138 72.60899 376.531 70.98799 373.676 70.98799C 370.821 70.98799 368.214 72.60899 366.95 75.16899L366.95 75.16899L359.4739 90.31599L342.7589 92.745C 339.9339 93.155 337.5859 95.134 336.7039 97.849C 335.822 100.564 336.558 103.544 338.601 105.537L338.601 105.537L350.697 117.328L347.8419 133.976C 347.3589 136.789 348.516 139.633 350.825 141.311C 353.1339 142.988 356.1949 143.212 358.723 141.882L358.723 141.882L373.674 134.023L388.6249 141.882C 389.7229 142.459 390.9209 142.743 392.114 142.743C 393.67 142.743 395.2169 142.26 396.5229 141.31C 398.8329 139.632 399.99 136.789 399.506 133.975L399.506 133.975L396.6509 117.327L408.7479 105.537C 410.792 103.544 411.527 100.563 410.645 97.849zM383.359 109.339C 381.591 111.063 380.785 113.545 381.203 115.978L381.203 115.978L382.156 121.535L377.166 118.912C 376.073 118.338 374.874 118.051 373.676 118.051C 372.478 118.051 371.279 118.338 370.186 118.912L370.186 118.912L365.196 121.535L366.149 115.978C 366.567 113.545 365.76 111.063 363.993 109.34L363.993 109.34L359.9561 105.404L365.5341 104.593C 367.9771 104.239 370.0891 102.704 371.1811 100.49L371.1811 100.49L373.6761 95.43401L376.1711 100.49C 377.264 102.704 379.3751 104.238 381.8181 104.593L381.8181 104.593L387.3961 105.404L383.359 109.339z" stroke="none" fill="#66CC33" fill-rule="nonzero" />
</g>
</svg>