<?xml version="1.0" standalone="no"?>
<!DOCTYPE svg PUBLIC "-//W3C//DTD SVG 1.0//EN" "http://www.w3.org/TR/2001/REC-SVG-20010904/DTD/svg10.dtd">
<svg xmlns="http://www.w3.org/2000/svg" xmlns:xlink="http://www.w3.org/1999/xlink" id="body_1" width="64" height="64">

<g transform="matrix(0.125 0 0 0.125 0 0)">
    <path transform="matrix(1.066667 0 0 1.066667 0 0)"  d="M360 136L376 136L376 104C 376 99.58203 372.418 96 368 96L368 96L336 96L336 112L360 112L360 136z" stroke="none" fill="#66CC33" fill-rule="nonzero" />
    <path transform="matrix(1.066667 0 0 1.066667 0 0)"  d="M120 112L144 112L144 96L112 96C 107.582 96 104 99.58203 104 104L104 104L104 136L120 136L120 112z" stroke="none" fill="#66CC33" fill-rule="nonzero" />
    <path transform="matrix(1.066667 0 0 1.066667 0 0)"  d="M376 280L376 248L360 248L360 272L336 272L336 288L368 288C 372.418 288 376 284.418 376 280z" stroke="none" fill="#66CC33" fill-rule="nonzero" />
    <path transform="matrix(1.066667 0 0 1.066667 0 0)"  d="M112 288L144 288L144 272L120 272L120 248L104 248L104 280C 104 284.418 107.582 288 112 288z" stroke="none" fill="#66CC33" fill-rule="nonzero" />
    <path transform="matrix(1.066667 0 0 1.066667 0 0)"  d="M168 288L312 288C 316.418 288 320 284.418 320 280L320 280L320 256.1602C 319.957 238.3125 308.1445 222.6289 291 217.6641L291 217.6641L264 209.9531L264 199.793C 274.0352 192.3008 279.9648 180.5234 280 168L280 168L280 160C 284.418 160 288 156.418 288 152L288 152L288 144C 288 117.4922 266.5078 96 240 96C 213.4922 96 192 117.4922 192 144L192 144L192 152C 192 156.418 195.582 160 200 160L200 160L200 168C 200.0352 180.5234 205.9648 192.3008 216 199.793L216 199.793L216 209.9531L189.0078 217.6641C 171.8594 222.625 160.0391 238.3086 160 256.1602L160 256.1602L160 280C 160 284.418 163.582 288 168 288zM240 112C 257.5898 112 271.8828 126.1953 272 143.7852C 269.7031 143.2266 267.7695 141.6836 266.7188 139.5664L266.7188 139.5664L263.1602 132.4336C 262.1367 130.375 260.2773 128.8594 258.0586 128.2695C 255.8359 127.6758 253.4727 128.0703 251.5586 129.3438L251.5586 129.3438L239.6563 137.2813C 233.0859 141.668 225.3633 144.0078 217.4648 144L217.4648 144L208 144C 208 126.3281 222.3281 112 240 112zM217.4648 160C 228.5234 160.0117 239.332 156.7344 248.5273 150.5938L248.5273 150.5938L252.9102 147.6719C 255.4297 152.1172 259.3203 155.625 264 157.6719L264 157.6719L264 168C 264 181.2539 253.2539 192 240 192C 226.7461 192 216 181.2539 216 168L216 168L216 160zM240 208C 242.6875 208.0039 245.3672 207.7344 248 207.1992L248 207.1992L248 216C 248.0273 218.2773 249.0313 220.4336 250.7617 221.9219L250.7617 221.9219L240 230L229.2383 221.9219C 230.9688 220.4336 231.9727 218.2773 232 216L232 216L232 207.1992C 234.6328 207.7344 237.3125 208.0039 240 208zM176 256.1602C 176.0195 245.4453 183.1094 236.0313 193.3984 233.0469L193.3984 233.0469L210.8008 228.0898L235.1992 246.3984C 238.043 248.5352 241.957 248.5352 244.8008 246.3984L244.8008 246.3984L269.1992 228.0898L286.6094 233.0547C 296.8945 236.0352 303.9805 245.4492 304 256.1602L304 256.1602L304 272L288 272L288 256L272 256L272 272L208 272L208 256L192 256L192 272L176 272z" stroke="none" fill="#66CC33" fill-rule="nonzero" />
    <path transform="matrix(1.066667 0 0 1.066667 0 0)"  d="M440 0L40 0C 17.91797 0.0273438 0.02734375 17.91797 0 40L0 40L0 344C 0.0273438 366.082 17.91797 383.9727 40 384L40 384L174.9375 384L168.9375 432L152 432C 138.7461 432 128 442.7461 128 456C 128 469.2539 138.7461 480 152 480L152 480L328 480C 341.2539 480 352 469.2539 352 456C 352 442.7461 341.2539 432 328 432L328 432L311.0625 432L305.0625 384L440 384C 462.082 383.9727 479.9727 366.082 480 344L480 344L480 40C 479.9727 17.91797 462.082 0.02734375 440 0zM40 16L440 16C 453.2539 16 464 26.74609 464 40L464 40L464 64L16 64L16 40C 16 26.74609 26.74609 16 40 16zM464 80L464 304L16 304L16 80zM336 456C 336 460.418 332.418 464 328 464L328 464L152 464C 147.582 464 144 460.418 144 456C 144 451.582 147.582 448 152 448L152 448L328 448C 332.418 448 336 451.582 336 456zM294.9375 432L185.0625 432L191.0625 384L288.9375 384zM440 368L40 368C 26.74609 368 16 357.2539 16 344L16 344L16 320L464 320L464 344C 464 357.2539 453.2539 368 440 368z" stroke="none" fill="#66CC33" fill-rule="nonzero" />
    <path transform="matrix(1.066667 0 0 1.066667 0 0)"  d="M416 336L432 336L432 352L416 352L416 336z" stroke="none" fill="#66CC33" fill-rule="nonzero" />
    <path transform="matrix(1.066667 0 0 1.066667 0 0)"  d="M48 32L64 32L64 48L48 48L48 32z" stroke="none" fill="#66CC33" fill-rule="nonzero" />
    <path transform="matrix(1.066667 0 0 1.066667 0 0)"  d="M80 32L96 32L96 48L80 48L80 32z" stroke="none" fill="#66CC33" fill-rule="nonzero" />
    <path transform="matrix(1.066667 0 0 1.066667 0 0)"  d="M112 32L128 32L128 48L112 48L112 32z" stroke="none" fill="#66CC33" fill-rule="nonzero" />
</g>
</svg>