<?xml version="1.0" encoding="UTF-8" standalone="no"?>
<svg width="22px" height="22px" viewBox="0 0 22 22" version="1.1" xmlns="http://www.w3.org/2000/svg" xmlns:xlink="http://www.w3.org/1999/xlink">
    <!-- Generator: Sketch 47 (45396) - http://www.bohemiancoding.com/sketch -->
    <title>Fill 1</title>
    <desc>Created with Sketch.</desc>
    <defs></defs>
    <g id="Symbols" stroke="none" stroke-width="1" fill="none" fill-rule="evenodd">
        <g id="Search-(Mobile)" transform="translate(-283.000000, -22.000000)" fill="#666666">
            <g id="Search-Icon" transform="translate(283.000000, 22.000000)">
                <path d="M9.14405161,16.7044581 C4.97469677,16.7044581 1.58314839,13.3129097 1.58314839,9.14426452 C1.58314839,4.97490968 4.97469677,1.58265161 9.14405161,1.58265161 C13.3126968,1.58265161 16.7042452,4.97490968 16.7042452,9.14426452 C16.7042452,13.3129097 13.3126968,16.7044581 9.14405161,16.7044581 L9.14405161,16.7044581 Z M15.0528258,16.1736194 L20.655729,21.7594903 C20.8061806,21.9170387 21.0063097,22.000071 21.2085677,22.000071 C21.6372129,22.000071 21.9998581,21.6374258 21.9998581,21.2087806 C21.9998581,21.0065226 21.9139871,20.7950387 21.7756,20.6559419 L16.1726968,15.0544581 L16.6786968,14.3242 C17.7162452,12.8246516 18.2882452,10.9851677 18.2882452,9.14426452 C18.2882452,4.10200645 14.1856,7.09677419e-05 9.14405161,7.09677419e-05 C4.10250323,7.09677419e-05 -0.000141935484,4.10200645 -0.000141935484,9.14426452 C-0.000141935484,14.1858129 4.10250323,18.2877484 9.14405161,18.2877484 C10.9856645,18.2877484 12.8251484,17.7164581 14.3239871,16.6789097 L15.0528258,16.1736194 Z" id="Fill-1"></path>
            </g>
        </g>
    </g>
</svg>