<?xml version="1.0" standalone="no"?>
<!DOCTYPE svg PUBLIC "-//W3C//DTD SVG 1.0//EN" "http://www.w3.org/TR/2001/REC-SVG-20010904/DTD/svg10.dtd">
<svg xmlns="http://www.w3.org/2000/svg" xmlns:xlink="http://www.w3.org/1999/xlink" id="body_1" width="64" height="64">

<g transform="matrix(0.125 0 0 0.125 0 0)">
    <path transform="matrix(1.368595 0 0 1.368595 0.07269409 0)"  d="M287.6641 75.74609L147.0586 0.8242188C 144.9727 -0.2890623 142.4727 -0.2734382 140.4023 0.8632808L140.4023 0.8632808L3.6875 75.78516C 1.445312 77.01563 0.0546875 79.36719 0.0546875 81.92578L0.0546875 81.92578L0.0546875 179.793C 0.136719 260.2422 47.80078 333.0234 121.5117 365.2539L121.5117 365.2539L140.4883 373.5234C 142.2617 374.2969 144.2813 374.3008 146.0586 373.5313L146.0586 373.5313L167.4414 364.2969C 242.5195 332.7656 291.3633 259.2813 291.3711 177.8516L291.3711 177.8516L291.3711 81.92578C 291.3711 79.33984 289.9453 76.96094 287.6641 75.74609zM277.3711 177.8516C 277.3555 253.668 231.8672 322.0781 161.9609 351.418L161.9609 351.418L161.9141 351.4414L143.293 359.4805L127.1133 352.4219C 58.5 322.4219 14.12891 254.6797 14.05078 179.793L14.05078 179.793L14.05078 86.07031L143.8125 14.95313L277.3711 86.12109z" stroke="none" fill="#66CC33" fill-rule="nonzero" />
    <path transform="matrix(1.368595 0 0 1.368595 0.07269409 0)"  d="M92.16797 175.2539C 89.65625 172.3125 85.23828 171.9648 82.29688 174.4766C 79.35547 176.9844 79.00781 181.4063 81.51953 184.3438L81.51953 184.3438L118.4961 227.6445C 120.9648 230.5352 125.2891 230.9297 128.2344 228.5313L128.2344 228.5313L214.3516 158.4688C 217.3516 156.0313 217.8047 151.6211 215.3633 148.6211C 212.9258 145.625 208.5156 145.168 205.5156 147.6094L205.5156 147.6094L124.7031 213.3516L92.16797 175.2539z" stroke="none" fill="#66CC33" fill-rule="nonzero" />
</g>
</svg>