<?xml version="1.0" standalone="no"?>
<!DOCTYPE svg PUBLIC "-//W3C//DTD SVG 1.0//EN" "http://www.w3.org/TR/2001/REC-SVG-20010904/DTD/svg10.dtd">
<svg xmlns="http://www.w3.org/2000/svg" xmlns:xlink="http://www.w3.org/1999/xlink" id="body_1" width="64" height="64">

<g transform="matrix(0.125 0 0 0.125 0 0)">
    <path transform="matrix(1 0 0 1 0 0)"  d="M64 400L40 400C 35.58172 400 32 403.5817 32 408C 32 412.4183 35.58172 416 40 416L40 416L64 416C 68.41828 416 72 412.4183 72 408C 72 403.5817 68.41828 400 64 400z" stroke="none" fill="#66CC33" fill-rule="nonzero" />
    <path transform="matrix(1 0 0 1 0 0)"  d="M96 400L88 400C 83.58172 400 80 403.5817 80 408C 80 412.4183 83.58172 416 88 416L88 416L96 416C 100.4183 416 104 412.4183 104 408C 104 403.5817 100.4183 400 96 400z" stroke="none" fill="#66CC33" fill-rule="nonzero" />
    <path transform="matrix(1 0 0 1 0 0)"  d="M472 168L456 168L456 104C 455.9769 86.33647 441.6635 72.02313 424 72L424 72L88 72C 70.33511 72.01984 56.01984 86.33511 56 104L56 104L56 248L40 248C 22.33511 248.0198 8.01984 262.3351 8 280L8 280L8 408C 8.01984 425.6649 22.33511 439.9802 40 440L40 440L120 440C 137.6635 439.9769 151.9769 425.6635 152 408L152 408L152 384L221.75 384L217.75 400L192 400C 187.5817 400 184 403.5817 184 408L184 408L184 432C 184 436.4183 187.5817 440 192 440L192 440L472 440C 489.6635 439.9769 503.9769 425.6635 504 408L504 408L504 200C 503.9769 182.3365 489.6635 168.0231 472 168zM136 408C 135.9884 416.8318 128.8318 423.9884 120 424L120 424L40 424C 31.16824 423.9884 24.01157 416.8318 24 408L24 408L24 280C 24.01157 271.1682 31.16824 264.0116 40 264L40 264L50.23 264L56.41 282.53C 57.49904 285.7969 60.55641 288.0003 64 288L64 288L96 288C 99.44359 288.0002 102.501 285.7968 103.59 282.53L103.59 282.53L109.77 264L120 264C 128.8318 264.0116 135.9884 271.1682 136 280zM67.1 264L92.9 264L90.23 272L69.77 272zM152 368L152 344L296 344L296 368zM296 384L296 400L294.25 400L290.25 384zM277.75 400L234.25 400L238.25 384L273.75 384zM200 424L200 416L297.01 416C 297.7424 418.8039 298.8525 421.4952 300.31 424zM296 200L296 328L152 328L152 280C 151.9769 262.3365 137.6635 248.0231 120 248L120 248L72 248L72 104C 72.01157 95.16824 79.16824 88.01157 88 88L88 88L424 88C 432.8318 88.01157 439.9884 95.16824 440 104L440 104L440 168L328 168C 310.3365 168.0231 296.0231 182.3365 296 200zM488 408C 487.9884 416.8318 480.8318 423.9884 472 424L472 424L328 424C 319.1682 423.9884 312.0116 416.8318 312 408L312 408L312 200C 312.0116 191.1682 319.1682 184.0116 328 184L328 184L472 184C 480.8318 184.0116 487.9884 191.1682 488 200z" stroke="none" fill="#66CC33" fill-rule="nonzero" />
    <path transform="matrix(1 0 0 1 0 0)"  d="M472 192L328 192C 323.5817 192 320 195.5817 320 200L320 200L320 384C 320 388.4183 323.5817 392 328 392L328 392L472 392C 476.4183 392 480 388.4183 480 384L480 384L480 200C 480 195.5817 476.4183 192 472 192zM464 376L336 376L336 208L464 208z" stroke="none" fill="#66CC33" fill-rule="nonzero" />
    <path transform="matrix(1 0 0 1 0 0)"  d="M400 408C 400 405.7909 399.219 403.9052 397.6569 402.3431C 396.0948 400.7811 394.2092 400 392 400C 389.7909 400 387.9053 400.7811 386.3431 402.3431C 384.7811 403.9052 384 405.7909 384 408C 384 410.2092 384.7811 412.0948 386.3431 413.6569C 387.9053 415.219 389.7909 416 392 416C 394.2092 416 396.0948 415.219 397.6569 413.6569C 399.219 412.0948 400 410.2092 400 408" stroke="none" fill="#66CC33" fill-rule="nonzero" />
</g>
</svg>