<?xml version="1.0" standalone="no"?>
<!DOCTYPE svg PUBLIC "-//W3C//DTD SVG 1.0//EN" "http://www.w3.org/TR/2001/REC-SVG-20010904/DTD/svg10.dtd">
<svg xmlns="http://www.w3.org/2000/svg" xmlns:xlink="http://www.w3.org/1999/xlink" id="body_1" width="64" height="48">

<g transform="matrix(0.0625 0 0 0.0625 0 0)">
    <path transform="matrix(1.5 0 0 1.5 128 0)"  d="M491.5 171C 487.5 160.5 475.9 155.3 465.4 159.2C 454.9 163.2 449.7 174.8 453.6 185.3C 473.1 236.7 471.8 292.8 450.2 343.3C 428 395.2 386.9 435.2 334.5 456.2C 282.1 477.1 224.7 476.4 172.8 454.2C 157.8 447.8 143.7 439.7 130.9 430.3C 99.39999 407.2 74.8 375.7 59.99999 338.5C 39.09999 286.1 39.79999 228.7 61.99999 176.8C 84.1 125 125.2 84.9 177.6 64C 227.7 44 282.5 43.8 332.5 63.3L332.5 63.3L318.2 87.5C 314.3 94.2 317.3 98.6 324.9 97.4L324.9 97.4L393.1 86.4C 400.7 85.2 404.9 78.2 402.3 70.9L402.3 70.9L379.1 5.8C 376.5 -1.5 371.2 -2 367.2 4.6L367.2 4.6L353.4 28C 292.1 2.200001 224.4 1.6 162.6 26.4C 100.2 51.4 51.19999 99.1 24.7 160.9C -1.799995 222.7 -2.700003 291.1 22.3 353.6C 40 397.9 69.3 435.5 106.9 463C 122.2 474.2 139 483.8 156.9 491.5C 218.7 518 287.1 518.9 349.5 493.9C 411.9 468.9 460.9 421.2 487.4 359.4C 513.2 299.2 514.6 232.3 491.5 171z" stroke="none" fill="#66CC33" fill-rule="nonzero" />
    <path transform="matrix(1.5 0 0 1.5 128 0)"  d="M247.1 98.5C 238.1 98.5 230.7 105.8 230.7 114.9L230.7 114.9L230.7 278.2L380.1 355.4C 382.5 356.6 385.1 357.2 387.6 357.2C 393.5 357.2 399.3 354 402.2 348.3C 406.4 340.3 403.2 330.4 395.2 326.2L395.2 326.2L263.6 258.2L263.6 114.9C 263.5 105.8 256.2 98.5 247.1 98.5z" stroke="none" fill="#414042" fill-rule="nonzero" />
</g>
</svg>